<svg width="64" height="38" viewBox="0 0 64 38" fill="none" xmlns="http://www.w3.org/2000/svg">
<rect y="-1.90735e-05" width="63.9683" height="37.931" rx="8" fill="white"/>
<path d="M21.8175 31.3758V29.7211C21.8175 29.0868 21.4333 28.6731 20.7747 28.6731C20.4454 28.6731 20.0887 28.7834 19.8417 29.1419C19.6496 28.8386 19.3752 28.6731 18.9636 28.6731C18.6892 28.6731 18.4148 28.7558 18.1953 29.0592V28.7283H17.619V31.3758H18.1953V29.9141C18.1953 29.4453 18.4423 29.2247 18.8264 29.2247C19.2106 29.2247 19.4027 29.4729 19.4027 29.9141V31.3758H19.9789V29.9141C19.9789 29.4453 20.2533 29.2247 20.6101 29.2247C20.9942 29.2247 21.1863 29.4729 21.1863 29.9141V31.3758H21.8175ZM30.3515 28.7283H29.4185V27.9285H28.8422V28.7283H28.3209V29.2523H28.8422V30.4657C28.8422 31.0724 29.0892 31.431 29.7478 31.431C29.9947 31.431 30.2692 31.3482 30.4612 31.2379L30.2966 30.7415C30.132 30.8518 29.9399 30.8794 29.8027 30.8794C29.5283 30.8794 29.4185 30.7139 29.4185 30.4381V29.2523H30.3515V28.7283ZM35.2359 28.6731C34.9066 28.6731 34.6871 28.8386 34.5499 29.0592V28.7283H33.9736V31.3758H34.5499V29.8866C34.5499 29.4453 34.742 29.1971 35.0987 29.1971C35.2085 29.1971 35.3457 29.2247 35.4554 29.2523L35.6201 28.7007C35.5103 28.6731 35.3457 28.6731 35.2359 28.6731ZM27.8544 28.9489C27.58 28.7558 27.1958 28.6731 26.7842 28.6731C26.1256 28.6731 25.6866 29.0041 25.6866 29.528C25.6866 29.9693 26.0159 30.2175 26.5921 30.3002L26.8665 30.3278C27.1684 30.383 27.333 30.4657 27.333 30.6036C27.333 30.7967 27.1135 30.9345 26.7293 30.9345C26.3451 30.9345 26.0433 30.7967 25.8512 30.6588L25.5768 31.1C25.8787 31.3206 26.2903 31.431 26.7019 31.431C27.4702 31.431 27.9093 31.0724 27.9093 30.576C27.9093 30.1072 27.5525 29.859 27.0037 29.7762L26.7293 29.7487C26.4824 29.7211 26.2903 29.6659 26.2903 29.5005C26.2903 29.3074 26.4824 29.1971 26.7842 29.1971C27.1135 29.1971 27.4428 29.335 27.6074 29.4177L27.8544 28.9489ZM43.1662 28.6731C42.8369 28.6731 42.6174 28.8386 42.4802 29.0592V28.7283H41.904V31.3758H42.4802V29.8866C42.4802 29.4453 42.6723 29.1971 43.029 29.1971C43.1388 29.1971 43.276 29.2247 43.3858 29.2523L43.5504 28.7007C43.4406 28.6731 43.276 28.6731 43.1662 28.6731ZM35.8122 30.052C35.8122 30.8518 36.361 31.431 37.2116 31.431C37.5958 31.431 37.8702 31.3482 38.1446 31.1276L37.8702 30.6588C37.6507 30.8242 37.4311 30.907 37.1842 30.907C36.7177 30.907 36.3884 30.576 36.3884 30.052C36.3884 29.5556 36.7177 29.2247 37.1842 29.1971C37.4311 29.1971 37.6507 29.2798 37.8702 29.4453L38.1446 28.9765C37.8702 28.7558 37.5958 28.6731 37.2116 28.6731C36.361 28.6731 35.8122 29.2523 35.8122 30.052ZM41.1356 28.7283H40.5594V29.0592C40.3673 28.811 40.0929 28.6731 39.7362 28.6731C38.9953 28.6731 38.419 29.2523 38.419 30.052C38.419 30.8518 38.9953 31.431 39.7362 31.431C40.1203 31.431 40.3947 31.2931 40.5594 31.0449V31.3758H41.1356V28.7283ZM39.0227 30.052C39.0227 29.5832 39.3245 29.1971 39.8185 29.1971C40.285 29.1971 40.6143 29.5556 40.6143 30.052C40.6143 30.5209 40.285 30.907 39.8185 30.907C39.3245 30.8794 39.0227 30.5209 39.0227 30.052ZM32.1351 28.6731C31.3668 28.6731 30.818 29.2247 30.818 30.052C30.818 30.8794 31.3668 31.431 32.1626 31.431C32.5467 31.431 32.9309 31.3206 33.2327 31.0724L32.9583 30.6588C32.7388 30.8242 32.4644 30.9345 32.19 30.9345C31.8333 30.9345 31.4765 30.7691 31.3942 30.3002H33.3425V30.0796C33.3699 29.2247 32.876 28.6731 32.1351 28.6731ZM32.1351 29.1695C32.4918 29.1695 32.7388 29.3902 32.7937 29.8038H31.4217C31.4765 29.4453 31.7235 29.1695 32.1351 29.1695ZM46.4317 27.6803H45.8554V29.0592C45.6633 28.811 45.3889 28.6731 45.0322 28.6731C44.2913 28.6731 43.715 29.2523 43.715 30.052C43.715 30.8518 44.2913 31.431 45.0322 31.431C45.4164 31.431 45.6908 31.2931 45.8554 31.0449V31.3758H46.4317V27.6803ZM44.3187 30.052C44.3187 29.5832 44.6206 29.1971 45.1145 29.1971C45.581 29.1971 45.9103 29.5556 45.9103 30.052C45.9103 30.5209 45.581 30.907 45.1145 30.907C44.6206 30.8794 44.3187 30.5209 44.3187 30.052ZM25.0554 28.7283H24.4792V29.0592C24.2871 28.811 24.0127 28.6731 23.656 28.6731C22.9151 28.6731 22.3388 29.2523 22.3388 30.052C22.3388 30.8518 22.9151 31.431 23.656 31.431C24.0401 31.431 24.3145 31.2931 24.4792 31.0449V31.3758H25.0554V28.7283ZM22.9151 30.052C22.9151 29.5832 23.2169 29.1971 23.7109 29.1971C24.1773 29.1971 24.5066 29.5556 24.5066 30.052C24.5066 30.5209 24.1773 30.907 23.7109 30.907C23.2169 30.8794 22.9151 30.5209 22.9151 30.052Z" fill="black"/>
<path d="M36.306 8.62365H27.6622V24.2331H36.306V8.62365Z" fill="#FF5F00"/>
<path d="M28.2111 16.4282C28.2111 13.2567 29.6929 10.4437 31.9704 8.62352C30.2966 7.29976 28.1836 6.49998 25.8786 6.49998C20.4179 6.49998 16 10.9401 16 16.4282C16 21.9164 20.4179 26.3565 25.8786 26.3565C28.1836 26.3565 30.2966 25.5567 31.9704 24.2329C29.6929 22.4403 28.2111 19.5998 28.2111 16.4282Z" fill="#EB001B"/>
<path d="M47.9683 16.4282C47.9683 21.9164 43.5504 26.3565 38.0897 26.3565C35.7847 26.3565 33.6718 25.5567 31.9979 24.2329C34.3029 22.4128 35.7573 19.5998 35.7573 16.4282C35.7573 13.2567 34.2755 10.4437 31.9979 8.62352C33.6718 7.29976 35.7847 6.49998 38.0897 6.49998C43.5504 6.49998 47.9683 10.9677 47.9683 16.4282Z" fill="#F79E1B"/>
</svg>
