<svg width="114" height="88" viewBox="0 0 114 88" fill="none" xmlns="http://www.w3.org/2000/svg">
<g filter="url(#filter0_d_130_350)">
<rect x="25" y="24" width="64" height="38" rx="8" fill="white"/>
</g>
<g clip-path="url(#clip0_130_350)">
<path d="M46.8176 55.8758V54.2211C46.8176 53.5868 46.4334 53.1731 45.7748 53.1731C45.4455 53.1731 45.0888 53.2834 44.8418 53.6419C44.6497 53.3386 44.3753 53.1731 43.9637 53.1731C43.6893 53.1731 43.4149 53.2558 43.1954 53.5592V53.2283H42.6191V55.8758H43.1954V54.4141C43.1954 53.9453 43.4424 53.7247 43.8265 53.7247C44.2107 53.7247 44.4028 53.9729 44.4028 54.4141V55.8758H44.979V54.4141C44.979 53.9453 45.2534 53.7247 45.6102 53.7247C45.9943 53.7247 46.1864 53.9729 46.1864 54.4141V55.8758H46.8176ZM55.3516 53.2283H54.4186V52.4285H53.8423V53.2283H53.321V53.7523H53.8423V54.9657C53.8423 55.5724 54.0893 55.931 54.7479 55.931C54.9948 55.931 55.2693 55.8482 55.4613 55.7379L55.2967 55.2415C55.1321 55.3518 54.94 55.3794 54.8028 55.3794C54.5284 55.3794 54.4186 55.2139 54.4186 54.9381V53.7523H55.3516V53.2283ZM60.236 53.1731C59.9067 53.1731 59.6872 53.3386 59.55 53.5592V53.2283H58.9737V55.8758H59.55V54.3866C59.55 53.9453 59.7421 53.6971 60.0988 53.6971C60.2086 53.6971 60.3458 53.7247 60.4555 53.7523L60.6202 53.2007C60.5104 53.1731 60.3458 53.1731 60.236 53.1731ZM52.8545 53.4489C52.5801 53.2558 52.1959 53.1731 51.7843 53.1731C51.1257 53.1731 50.6867 53.504 50.6867 54.028C50.6867 54.4693 51.016 54.7175 51.5922 54.8002L51.8666 54.8278C52.1685 54.883 52.3331 54.9657 52.3331 55.1036C52.3331 55.2967 52.1136 55.4345 51.7294 55.4345C51.3452 55.4345 51.0434 55.2967 50.8513 55.1588L50.5769 55.6C50.8788 55.8206 51.2904 55.931 51.702 55.931C52.4703 55.931 52.9094 55.5724 52.9094 55.076C52.9094 54.6072 52.5526 54.359 52.0038 54.2762L51.7294 54.2487C51.4825 54.2211 51.2904 54.1659 51.2904 54.0005C51.2904 53.8074 51.4825 53.6971 51.7843 53.6971C52.1136 53.6971 52.4429 53.835 52.6075 53.9177L52.8545 53.4489ZM68.1663 53.1731C67.837 53.1731 67.6175 53.3386 67.4803 53.5592V53.2283H66.9041V55.8758H67.4803V54.3866C67.4803 53.9453 67.6724 53.6971 68.0291 53.6971C68.1389 53.6971 68.2761 53.7247 68.3859 53.7523L68.5505 53.2007C68.4407 53.1731 68.2761 53.1731 68.1663 53.1731ZM60.8123 54.552C60.8123 55.3518 61.3611 55.931 62.2117 55.931C62.5959 55.931 62.8703 55.8482 63.1447 55.6276L62.8703 55.1588C62.6508 55.3242 62.4312 55.407 62.1843 55.407C61.7178 55.407 61.3885 55.076 61.3885 54.552C61.3885 54.0556 61.7178 53.7247 62.1843 53.6971C62.4312 53.6971 62.6508 53.7798 62.8703 53.9453L63.1447 53.4765C62.8703 53.2558 62.5959 53.1731 62.2117 53.1731C61.3611 53.1731 60.8123 53.7523 60.8123 54.552ZM66.1357 54.552V53.2283H65.5595V53.5592C65.3674 53.311 65.093 53.1731 64.7363 53.1731C63.9954 53.1731 63.4191 53.7523 63.4191 54.552C63.4191 55.3518 63.9954 55.931 64.7363 55.931C65.1204 55.931 65.3948 55.7931 65.5595 55.5449V55.8758H66.1357V54.552ZM64.0228 54.552C64.0228 54.0832 64.3246 53.6971 64.8186 53.6971C65.2851 53.6971 65.6144 54.0556 65.6144 54.552C65.6144 55.0209 65.2851 55.407 64.8186 55.407C64.3246 55.3794 64.0228 55.0209 64.0228 54.552ZM57.1352 53.1731C56.3669 53.1731 55.8181 53.7247 55.8181 54.552C55.8181 55.3794 56.3669 55.931 57.1627 55.931C57.5468 55.931 57.931 55.8206 58.2328 55.5724L57.9584 55.1588C57.7389 55.3242 57.4645 55.4345 57.1901 55.4345C56.8334 55.4345 56.4766 55.2691 56.3943 54.8002H58.3426V54.5796C58.37 53.7247 57.8761 53.1731 57.1352 53.1731ZM57.1352 53.6695C57.4919 53.6695 57.7389 53.8901 57.7938 54.3038H56.4218C56.4766 53.9453 56.7236 53.6695 57.1352 53.6695ZM71.4318 54.552V52.1803H70.8555V53.5592C70.6634 53.311 70.389 53.1731 70.0323 53.1731C69.2914 53.1731 68.7151 53.7523 68.7151 54.552C68.7151 55.3518 69.2914 55.931 70.0323 55.931C70.4165 55.931 70.6909 55.7931 70.8555 55.5449V55.8758H71.4318V54.552ZM69.3188 54.552C69.3188 54.0832 69.6207 53.6971 70.1146 53.6971C70.5811 53.6971 70.9104 54.0556 70.9104 54.552C70.9104 55.0209 70.5811 55.407 70.1146 55.407C69.6207 55.3794 69.3188 55.0209 69.3188 54.552ZM50.0555 54.552V53.2283H49.4793V53.5592C49.2872 53.311 49.0128 53.1731 48.6561 53.1731C47.9152 53.1731 47.3389 53.7523 47.3389 54.552C47.3389 55.3518 47.9152 55.931 48.6561 55.931C49.0402 55.931 49.3146 55.7931 49.4793 55.5449V55.8758H50.0555V54.552ZM47.9152 54.552C47.9152 54.0832 48.217 53.6971 48.711 53.6971C49.1774 53.6971 49.5067 54.0556 49.5067 54.552C49.5067 55.0209 49.1774 55.407 48.711 55.407C48.217 55.3794 47.9152 55.0209 47.9152 54.552Z" fill="black"/>
<path d="M61.3059 33.1237H52.6621V48.7331H61.3059V33.1237Z" fill="#FF5F00"/>
<path d="M53.2111 40.9282C53.2111 37.7567 54.6929 34.9437 56.9704 33.1235C55.2965 31.7998 53.1836 31 50.8786 31C45.4179 31 41 35.4401 41 40.9282C41 46.4164 45.4179 50.8565 50.8786 50.8565C53.1836 50.8565 55.2965 50.0567 56.9704 48.733C54.6929 46.9404 53.2111 44.0998 53.2111 40.9282Z" fill="#EB001B"/>
<path d="M72.9685 40.9282C72.9685 46.4164 68.5505 50.8565 63.0899 50.8565C60.7849 50.8565 58.6719 50.0567 56.998 48.733C59.3031 46.9128 60.7574 44.0998 60.7574 40.9282C60.7574 37.7567 59.2756 34.9437 56.998 33.1235C58.6719 31.7998 60.7849 31 63.0899 31C68.5505 31 72.9685 35.4677 72.9685 40.9282Z" fill="#F79E1B"/>
</g>
<defs>
<filter id="filter0_d_130_350" x="0" y="0" width="114" height="88" filterUnits="userSpaceOnUse" color-interpolation-filters="sRGB">
<feFlood flood-opacity="0" result="BackgroundImageFix"/>
<feColorMatrix in="SourceAlpha" type="matrix" values="0 0 0 0 0 0 0 0 0 0 0 0 0 0 0 0 0 0 127 0" result="hardAlpha"/>
<feOffset dy="1"/>
<feGaussianBlur stdDeviation="12.5"/>
<feColorMatrix type="matrix" values="0 0 0 0 0 0 0 0 0 0 0 0 0 0 0 0 0 0 0.08 0"/>
<feBlend mode="normal" in2="BackgroundImageFix" result="effect1_dropShadow_130_350"/>
<feBlend mode="normal" in="SourceGraphic" in2="effect1_dropShadow_130_350" result="shape"/>
</filter>
<clipPath id="clip0_130_350">
<rect width="32" height="25" fill="white" transform="translate(41 31)"/>
</clipPath>
</defs>
</svg>
