<svg width="26" height="26" viewBox="0 0 26 26" fill="none" xmlns="http://www.w3.org/2000/svg">
<rect width="26" height="26" rx="5" fill="#FFF6E9"/>
<path d="M21.3304 13.2714C21.3287 14.3122 21.0187 15.3291 20.4394 16.1936C19.8601 17.0581 19.0376 17.7314 18.0759 18.1284C17.1142 18.5254 16.0563 18.6282 15.0362 18.4239C14.016 18.2196 13.0793 17.7173 12.3445 16.9806C11.6096 16.2438 11.1096 15.3057 10.9077 14.2847C10.7057 13.2638 10.8109 12.2058 11.2099 11.2447C11.6089 10.2835 12.2839 9.46224 13.1494 8.88471C14.0149 8.30718 15.0321 7.9993 16.0725 8C16.7641 8.00039 17.4487 8.13706 18.0874 8.40222C18.7261 8.66737 19.3064 9.05581 19.795 9.54534C20.2836 10.0349 20.671 10.6159 20.935 11.2552C21.1991 11.8946 21.3346 12.5797 21.3339 13.2714H21.3304Z" fill="#F79F1A"/>
<path d="M15.1894 13.2714C15.1878 14.3122 14.8777 15.3291 14.2985 16.1936C13.7192 17.0581 12.8967 17.7314 11.9349 18.1284C10.9732 18.5254 9.9154 18.6282 8.89524 18.4239C7.87508 18.2196 6.93837 17.7173 6.20352 16.9806C5.46867 16.2438 4.96868 15.3057 4.76674 14.2847C4.56479 13.2638 4.66998 12.2058 5.06898 11.2447C5.46799 10.2835 6.14291 9.46224 7.00843 8.88471C7.87394 8.30718 8.8912 7.9993 9.9316 8C10.6231 8.00039 11.3078 8.13706 11.9465 8.40222C12.5852 8.66737 13.1654 9.05581 13.654 9.54534C14.1426 10.0349 14.53 10.6159 14.7941 11.2552C15.0581 11.8946 15.1937 12.5797 15.193 13.2714H15.1894Z" fill="#EA001B"/>
</svg>
