<svg width="340" height="116" viewBox="0 0 403 116" fill="none" xmlns="http://www.w3.org/2000/svg">
    <g clip-path="url(#clip0_349_670)">
        <path
            d="M60.5534 78.64L76.8885 103.503C76.8885 103.503 69.7138 116.938 43.9701 115.941C18.2263 114.943 12.5527 109.704 12.5527 109.704L28.6278 103.242C28.6278 103.242 15.0231 92.2892 16.5124 87.3237C16.5124 87.3237 26.1574 94.5344 36.7954 91.7903C47.4333 89.0462 60.5534 78.64 60.5534 78.64Z"
            fill="#663399" />
        <path
            d="M48.9224 103.503C48.9224 103.503 56.8418 115.382 76.8883 103.503C76.8883 103.503 65.8958 83.95 52.6339 92.8119C50.888 93.8949 49.5662 95.5487 48.8904 97.4956C48.2145 99.4424 48.2258 101.564 48.9224 103.503Z"
            fill="#5C614E" />
        <path
            d="M48.9226 103.503C48.9226 103.503 41.2514 76.4424 48.9226 71.6907C56.5937 66.9391 72.4324 68.7091 76.8885 67.9607C81.3446 67.2123 103.613 93.0732 103.613 93.0732C103.613 93.0732 105.835 100.284 89.5003 102.03C73.1652 103.776 54.3716 88.5829 48.9226 103.503Z"
            fill="#663399" />
        <path
            d="M73.9219 73.4132V85.1023C73.9219 85.1023 89.6069 95.3065 103.613 93.0613C103.613 93.0732 83.1178 65.7512 73.9219 73.4132Z"
            fill="#65684F" />
        <path
            d="M331.702 78.64L315.367 103.503C315.367 103.503 322.554 116.938 348.286 115.941C374.018 114.943 379.703 109.704 379.703 109.704L363.628 103.242C363.628 103.242 377.233 92.2892 375.755 87.3237C375.755 87.3237 366.098 94.5344 355.46 91.7903C344.822 89.0462 331.702 78.64 331.702 78.64Z"
            fill="#663399" />
        <path
            d="M343.333 103.503C343.333 103.503 335.414 115.382 315.367 103.503C315.367 103.503 326.36 83.95 339.622 92.8119C341.368 93.8949 342.689 95.5487 343.365 97.4956C344.041 99.4424 344.03 101.564 343.333 103.503Z"
            fill="#663399" />
        <path
            d="M343.333 103.503C343.333 103.503 351.004 76.4068 343.333 71.6788C335.662 66.9509 319.823 68.6972 315.367 67.9488C310.911 67.2004 288.642 93.0732 288.642 93.0732C288.642 93.0732 286.42 100.284 302.755 102.03C319.09 103.776 337.896 88.5829 343.333 103.503Z"
            fill="#663399" />
        <path
            d="M318.334 73.4132V85.1023C318.334 85.1023 302.649 95.3065 288.643 93.0613C288.643 93.0732 309.197 65.7512 318.334 73.4132Z"
            fill="#65684F" />
        <path
            d="M73.9215 85.1023C73.9215 85.1023 65.754 58.8969 73.9215 50.1301C94.2754 28.2605 161.826 23.3544 191.861 23.3544C222.9 23.3544 296.715 27.1676 318.168 50.1301C326.336 58.8731 318.168 85.1023 318.168 85.1023C318.168 85.1023 267.343 68.1983 194.059 68.1983C120.776 68.1983 73.9215 85.1023 73.9215 85.1023Z"
            fill="#663399" />
        <path
            d="M313.901 74.3635H313.842C313.747 74.4338 313.644 74.4936 313.535 74.5417L313.736 74.4111C313.274 74.616 312.784 74.7482 312.282 74.8031C311.006 75.005 309.067 74.4942 307.117 74.4586C309.114 74.3517 310.923 73.7458 312.294 73.924C312.849 73.9625 313.393 74.0992 313.901 74.3279C313.782 74.2746 313.667 74.2111 313.559 74.1378C313.559 74.1378 313.677 74.1378 313.901 74.3279C313.442 74.0032 313.043 73.6013 312.719 73.14C311.845 72.0827 311.384 70.2177 310.415 68.4596C309.899 67.6029 309.142 66.9196 308.239 66.4966C307.336 66.0735 306.328 65.9298 305.344 66.0838C304.002 66.2768 302.723 66.7812 301.609 67.5568C301.548 68.9168 301.807 70.272 302.365 71.5125C302.765 72.4301 303.429 73.2065 304.272 73.742C305.114 74.2776 306.097 74.5478 307.093 74.518C306.089 74.5316 305.111 74.8433 304.282 75.414C303.454 75.9847 302.811 76.7888 302.436 77.7253C301.915 78.9698 301.728 80.3294 301.892 81.6692C303.003 82.4487 304.301 82.9162 305.651 83.0235C306.646 83.129 307.649 82.9346 308.533 82.4649C309.417 81.9952 310.142 81.2716 310.616 80.3863C311.537 78.5688 311.928 76.6681 312.755 75.6346C313.05 75.1392 313.44 74.7072 313.901 74.3635Z"
            fill="#E8CE79" />
        <path
            d="M313.89 74.1497C313.89 74.0309 313.89 73.9478 313.89 73.9121C313.89 73.8765 313.89 74.0784 313.89 74.2804C313.926 73.7234 314.058 73.1768 314.28 72.6648C314.752 71.3819 316.147 70.0395 317.175 68.2814C317.667 67.408 317.889 66.4074 317.813 65.407C317.737 64.4065 317.367 63.4512 316.75 62.6626C315.927 61.5967 314.844 60.7621 313.606 60.2392C312.39 60.8218 311.343 61.7096 310.568 62.817C309.981 63.6359 309.649 64.6111 309.614 65.6196C309.578 66.628 309.84 67.6245 310.367 68.4834C311.431 70.1108 312.897 71.4888 313.405 72.6886C313.644 73.1459 313.808 73.6394 313.89 74.1497Z"
            fill="#E8CE79" />
        <path
            d="M325.485 77.2264C325.083 76.3095 324.419 75.5333 323.577 74.9962C322.735 74.459 321.754 74.1851 320.757 74.2091C321.763 74.2003 322.743 73.892 323.574 73.3232C324.405 72.7544 325.049 71.9507 325.426 71.0136C325.94 69.7633 326.127 68.4015 325.97 67.0578C324.841 66.2944 323.533 65.8436 322.175 65.7511C321.176 65.6289 320.164 65.8102 319.269 66.2718C318.373 66.7334 317.636 67.4541 317.152 68.3408C316.242 70.1583 315.852 72.059 315.024 73.0925C314.705 73.5572 314.305 73.9597 313.842 74.2804H313.949C314.415 74.0791 314.909 73.9509 315.414 73.9002C316.691 73.6983 318.629 74.1972 320.568 74.2329C318.582 74.3517 316.762 74.9575 315.403 74.7674C314.847 74.7373 314.302 74.6045 313.795 74.3754C314.253 74.7019 314.652 75.1035 314.977 75.5633C315.864 76.6206 316.325 78.4856 317.341 80.2437C316.265 78.6044 314.812 77.2264 314.303 76.0385C314.081 75.5801 313.926 75.092 313.842 74.5892C313.842 74.5892 313.842 74.5061 313.842 74.4704C313.816 75.0291 313.684 75.5775 313.452 76.086C312.991 77.369 311.597 78.7113 310.556 80.4575C310.067 81.3337 309.847 82.3357 309.922 83.3375C309.998 84.3394 310.367 85.2964 310.982 86.0883C311.796 87.1804 312.885 88.0335 314.138 88.5591C315.35 87.9755 316.395 87.0927 317.176 85.9932C317.759 85.1731 318.09 84.1982 318.125 83.1905C318.161 82.1827 317.901 81.1867 317.377 80.3269C317.894 81.1813 318.652 81.8628 319.554 82.2855C320.457 82.7083 321.463 82.8534 322.447 82.7027C323.812 82.5179 325.11 81.9999 326.23 81.194C326.301 79.8306 326.046 78.4699 325.485 77.2264Z"
            fill="#E8CE79" />
        <path
            d="M379.301 73.3182H380.176C385.436 76.5374 384.206 84.9479 399.265 86.0764C398.532 81.5861 394.62 76.9176 389.809 74.3398C393.119 74.6605 397.161 73.8884 403 69.5169C397.09 64.5632 383.627 66.3689 379.136 72.6767C378.367 72.6767 377.564 72.5698 376.713 72.4985C375.862 72.4273 374.833 72.356 373.817 72.2372C372.8 72.1184 371.772 72.0234 370.696 71.8571L369.68 71.7145C368.53 71.354 367.338 71.1463 366.134 71.0968C364.254 70.7404 362.304 70.3009 360.33 69.802C359.574 69.6119 358.817 69.3981 358.061 69.1842C364.514 69.4693 372.15 66.4164 374.833 61.5341C367.824 59.5859 363.782 60.3461 360.815 61.8429C364.361 57.6852 366.323 51.9119 365.377 47.4691C351.052 54.2878 356.347 62.0924 351.548 66.9391C350.756 66.6421 349.976 66.3451 349.184 66.0125L345.52 64.3732L338.428 60.5243C337.305 59.9304 336.147 59.3364 335 58.8731C341.938 59.1582 350.673 54.7035 352.895 48.8234C345.673 47.9087 341.785 49.2273 339.054 51.1992C341.974 46.5782 343.109 40.5792 341.548 36.3146C328.653 44.9508 334.456 51.7575 330.91 57.2694C328.687 56.4625 326.412 55.8037 324.102 55.2975C322.92 55.0243 321.821 54.8699 320.733 54.656C319.646 54.4422 318.582 54.3947 317.566 54.264C316.549 54.1333 315.568 54.1096 314.634 54.0858C313.701 54.0621 312.826 54.0858 311.999 54.0858C310.567 54.1337 309.139 54.2566 307.72 54.4541C306.805 54.5814 305.898 54.7558 305.001 54.9768C304.685 55.0459 304.373 55.1331 304.067 55.2381C305.286 55.0116 306.518 54.8647 307.755 54.7986C309.169 54.7242 310.585 54.7242 311.999 54.7986C313.63 54.858 315.462 55.0362 317.459 55.2737C318.44 55.4519 319.481 55.5945 320.533 55.8083C321.584 56.0221 322.696 56.2597 323.795 56.5805C326.119 57.217 328.407 57.9784 330.65 58.8612C333.034 59.8191 335.365 60.9016 337.636 62.1043L341.702 64.3732C340.78 71.2393 331.324 71.6551 334.515 87.3118C338.617 85.3755 342.009 80.315 343.168 74.9694C343.77 78.2599 345.614 81.9543 351.382 86.3971C353.959 80.5526 350.732 70.9542 345.473 66.3808L348.51 67.7469C349.763 68.2814 351.052 68.721 352.304 69.208C354.798 70.0672 357.335 70.7928 359.905 71.3819C361.429 71.7383 362.919 72.0234 364.396 72.2609C366.075 78.3668 359.006 83.4392 368.982 95.0689C371.618 91.3745 372.126 85.2924 370.554 80.0418C372.67 82.6315 376.062 84.9598 383.261 85.9814C382.823 81.099 378.344 75.991 373.178 73.2113H373.722C375.779 73.3419 377.646 73.3419 379.301 73.3182Z"
            fill="#C4B985" />
        <path
            d="M344.48 23.9009C344.208 23.9959 343.96 24.1028 343.699 24.2097C343.439 24.3167 342.919 24.4948 342.517 24.6493L341.607 25.0532L340.804 25.4214C340.484 25.5877 340.165 25.7422 339.87 25.9085L339.302 26.2173C338.96 26.4074 338.652 26.5975 338.345 26.7875L338.014 27.0013L337.009 27.7022C332.612 31.0403 331.856 34.9129 333.05 38.7974C334.244 42.6818 337.033 45.4497 342.506 45.7229H344.22L345.272 45.6516L345.981 45.5803L346.962 45.4616L347.896 45.2952L348.829 45.1289L350.011 44.8438L350.803 44.6538C351.512 44.4637 352.233 44.2618 352.99 44.0242C363.285 40.8406 371.311 29.0089 374.502 25.9203C370.424 25.2314 358.581 20.6341 348.652 22.6179L348.357 22.6773C347.754 22.8199 347.175 22.9624 346.56 23.1406C345.945 23.3188 345.165 23.6514 344.48 23.9009Z"
            fill="#663399" />
        <path
            d="M374.349 26.1698L374.561 25.956C370.484 25.267 358.64 20.6697 348.711 22.6535L348.416 22.7129C347.813 22.8555 347.234 22.998 346.619 23.1762C346.004 23.3544 345.153 23.6514 344.468 23.9009C344.196 23.9959 343.948 24.1028 343.688 24.2097C343.428 24.3166 342.908 24.4948 342.506 24.6492L341.596 25.0531L340.792 25.4214C340.473 25.5877 340.154 25.7421 339.858 25.9084L339.291 26.2173C338.948 26.4074 338.641 26.5974 338.333 26.7875L338.002 27.0013L336.998 27.7022C332.601 31.0402 331.844 34.9128 333.038 38.7973C333.233 39.4354 333.482 40.0554 333.783 40.6505C345.934 32.7152 360.082 28.4625 374.349 26.1698Z"
            fill="#3A3D30" />
        <path
            d="M348.936 40.2466C348.936 40.2466 349.184 40.1278 349.054 40.1159C345.083 39.8665 341.123 40.2941 337.352 38.7974C339.593 37.1945 341.965 35.7876 344.444 34.5921C347.408 34.431 350.38 34.6264 353.297 35.1742C353.368 35.1742 353.64 35.0792 353.522 35.0317C350.979 34.1178 348.264 33.793 345.579 34.0813C346.95 33.4636 348.369 32.8934 349.846 32.3826L351.867 31.7411C354.775 33.6299 359.763 33.523 363.073 33.1429C363.073 33.1429 363.356 33.0122 363.203 33.0003C359.641 32.79 356.103 32.2854 352.624 31.4917C356.773 30.3038 361.004 29.4603 365.177 28.3199C365.318 28.3199 365.366 28.1299 365.177 28.1655C363.073 28.5298 360.977 28.9574 358.888 29.4484C360.425 27.4884 362.647 26.9063 364.798 25.754C364.952 25.659 364.798 25.5996 364.716 25.6352C363.352 26.0054 362.039 26.5399 360.803 27.227C359.999 27.6903 358.439 28.4981 358.38 29.6029C355.201 30.3631 352.056 31.2541 348.983 32.2757C347.943 32.6241 346.891 33.0201 345.827 33.4636C347.281 31.1478 349.32 29.262 351.737 27.9992C353.451 27.0489 355.283 26.2886 357.021 25.3739C357.174 25.3026 357.021 25.2195 356.938 25.2551C353.392 26.5143 345.875 29.1633 345.284 33.6893C343.28 34.4785 341.35 35.4444 339.516 36.5759C339.705 35.6107 340.109 34.701 340.697 33.915C341.336 33.036 342.175 32.3232 342.825 31.4441C342.908 31.3254 342.624 31.3729 342.589 31.4441C341.135 32.4895 338.452 34.8535 339.043 36.968C337.675 37.8524 336.41 38.8884 335.272 40.0565C335.024 40.3179 335.591 40.2704 335.709 40.1753C336.194 39.8071 336.667 39.4507 337.152 39.1062C340.225 41.0663 345.402 40.5079 348.936 40.2466Z"
            fill="#FDFCEC" />
        <path
            d="M389.679 47.6236L392.043 47.7424L390.364 49.2391L392.728 50.427H392.669C396.972 50.6527 398.213 47.5048 397.314 45.3309C396.416 43.157 392.764 42.3136 390.163 45.1646L389.679 47.6236Z"
            fill="#EDCBCE" />
        <path
            d="M378.816 65.2403L380.849 66.4283L380.235 64.2425L382.859 64.5632C386.606 66.6896 385.967 70.0276 384.041 71.3819C382.114 72.7361 378.592 71.4531 377.918 67.6518L378.816 65.2403Z"
            fill="#EDCBCE" />
        <path
            d="M377.008 44.1311L379.372 44.2499L377.682 45.7466L380.046 46.9346C384.348 47.1603 385.577 44.0004 384.691 41.8265C383.804 39.6526 380.14 38.8211 377.599 41.6721L377.008 44.1311Z"
            fill="#EDCBCE" />
        <path
            d="M366.642 61.6766L368.675 62.8645L368.06 60.6906L370.684 61.0114C374.431 63.1377 373.793 66.4758 371.866 67.83C369.94 69.1842 366.417 67.9013 365.744 64.0999L366.642 61.6766Z"
            fill="#EDCBCE" />
        <path
            d="M364.798 40.3891L367.162 40.5079L365.448 41.9928L367.812 43.1807H367.753C372.055 43.4064 373.285 40.2585 372.398 38.0727C371.512 35.8869 367.847 35.0673 365.247 37.9183L364.798 40.3891Z"
            fill="#EDCBCE" />
        <path
            d="M354.243 58.0416L356.264 59.2295L355.65 57.0556L358.285 57.3763C362.032 59.5027 361.382 62.8408 359.467 64.195C357.552 65.5492 354.03 64.2663 353.356 60.4649L354.243 58.0416Z"
            fill="#EDCBCE" />
        <path
            d="M352.387 36.7541L354.751 36.8729L353.037 38.4291L355.401 39.617H355.342C359.645 39.8427 360.886 36.6947 359.999 34.5208C359.113 32.3469 355.449 31.5035 352.836 34.3545L352.387 36.7541Z"
            fill="#EDCBCE" />
        <path
            d="M341.879 54.4184L343.912 55.6064L343.286 53.4325L345.922 53.7532C349.669 55.8796 349.03 59.2176 347.104 60.5718C345.177 61.9261 341.655 60.6431 340.981 56.8418L341.879 54.4184Z"
            fill="#EDCBCE" />
        <path
            d="M365.72 64.29L366.677 61.9142L368.699 63.1021L368.084 60.9282L370.72 61.2489C370.72 61.2489 367.718 59.0988 366.311 59.6215C365.085 57.1196 364.62 54.3097 364.975 51.5437L372.895 53.8126L376.559 54.8342C376.146 57.9357 376.686 61.09 378.107 63.8742C377.493 65.1928 378.107 67.9726 378.107 67.9726L379.053 65.5967L381.086 66.7846L380.495 64.5632L383.131 64.884C383.131 64.884 380.128 62.7338 378.722 63.2565C377.485 60.7158 377.036 57.8601 377.434 55.0599L383.615 56.7467C386.736 57.602 389.36 58.2435 391.192 58.7306L392.043 58.9444C392.016 59.0012 391.996 59.061 391.984 59.1226C391.688 60.6312 395.069 62.8764 395.081 62.8645L393.828 60.4887L396.074 60.2867L394.253 58.8018L396.121 57.0437C396.121 57.0437 392.858 57.5189 392.126 58.7662L391.263 58.4692C389.454 57.899 386.901 57.02 383.804 56.0934L382.622 55.7251C383.787 53.1067 385.722 50.9096 388.166 49.4292C389.076 50.6171 392.752 50.4508 392.74 50.4389L390.376 49.251L392.067 47.7542L389.703 47.6354L390.187 45.1052C390.187 45.1052 388.166 47.1009 387.977 48.5382C385.255 50.1353 383.095 52.543 381.795 55.4282C379.183 54.6085 376.299 53.6819 373.214 52.7553L370.294 51.8763C371.471 49.3381 373.372 47.2087 375.755 45.7585C376.665 46.9464 380.341 46.7801 380.341 46.7682L377.977 45.5803L379.667 44.0836L377.304 43.9648L377.776 41.4345C377.776 41.4345 375.755 43.4183 375.566 44.8676C372.903 46.4405 370.773 48.7836 369.455 51.5912L361.039 49.1203L357.872 48.2175C359.057 45.6984 360.952 43.5839 363.321 42.1354C364.231 43.3233 367.907 43.157 367.907 43.1451L365.543 41.9572L367.221 40.4485L364.857 40.3416L365.33 37.8114C365.33 37.8114 363.297 39.8071 363.12 41.2563C360.468 42.8118 358.35 45.1399 357.044 47.9324L348.829 45.5566L345.425 44.6062C346.598 42.0388 348.513 39.8861 350.921 38.4291C351.82 39.617 355.496 39.4507 355.496 39.4388L353.132 38.2509L354.81 36.7541L352.446 36.6472L352.919 34.1169C352.919 34.1169 350.898 36.1126 350.709 37.5619C348.017 39.1442 345.875 41.5207 344.574 44.3687C342.281 43.7391 340.094 43.1807 338.144 42.6105C335.012 41.7552 332.069 40.5436 330.237 40.0565C328.405 39.5695 328.227 38.0133 327.672 39.914C327.116 41.8146 328.109 40.5792 329.906 41.185C331.702 41.7909 334.846 42.373 337.943 43.2758L339.35 43.7272C338.888 46.8602 339.417 50.0599 340.863 52.8741C340.26 54.1927 340.863 56.9724 340.863 56.9724L341.808 54.5966L343.841 55.7845L343.215 53.6106L345.851 53.9314C345.851 53.9314 342.86 51.7813 341.454 52.3039C340.177 49.7332 339.719 46.83 340.142 43.9885C342.695 44.7844 345.496 45.6872 348.487 46.5782L351.69 47.5404C351.284 50.6187 351.824 53.7481 353.238 56.5092C352.624 57.8277 353.238 60.6075 353.238 60.5956L354.184 58.2198L356.205 59.4077L355.59 57.2338L358.226 57.5545C358.226 57.5545 355.236 55.4044 353.829 55.9271C352.648 53.4115 352.225 50.6036 352.612 47.8493L360.732 50.2251L364.183 51.2111C363.802 54.2786 364.346 57.3905 365.744 60.1442C365.082 61.5222 365.732 64.3019 365.72 64.29ZM387.953 48.7046C387.947 48.7638 387.947 48.8235 387.953 48.8827C387.953 48.8827 387.93 48.7639 387.93 48.7046H387.953ZM375.578 45.3309C375.566 45.4096 375.566 45.4897 375.578 45.5685C375.558 45.491 375.55 45.4108 375.554 45.3309H375.578ZM375.578 45.0577C375.572 45.1248 375.572 45.1924 375.578 45.2596C375.556 45.194 375.54 45.1263 375.531 45.0577H375.578ZM363.191 41.7077C363.19 41.8058 363.211 41.9029 363.25 41.9928C363.194 41.9066 363.158 41.8094 363.143 41.7077H363.191ZM363.191 41.4345C363.185 41.4938 363.185 41.5534 363.191 41.6127C363.161 41.556 363.137 41.4963 363.12 41.4345H363.191ZM350.803 38.0608C350.814 38.1433 350.838 38.2235 350.874 38.2984C350.813 38.2283 350.765 38.1479 350.732 38.0608H350.803ZM350.803 37.7876C350.798 37.8548 350.798 37.9224 350.803 37.9896C350.765 37.9254 350.734 37.8578 350.709 37.7876H350.803ZM341.229 52.5534C341.279 52.4997 341.334 52.4519 341.395 52.4108C341.301 52.4445 341.213 52.4926 341.135 52.5534H341.229ZM353.534 56.2478C353.581 56.1842 353.642 56.1316 353.711 56.0934C353.646 56.1379 353.587 56.1897 353.534 56.2478ZM353.368 56.4616C353.404 56.4074 353.443 56.3557 353.486 56.3072C353.445 56.3405 353.405 56.3762 353.368 56.4141V56.4616ZM365.945 59.8828C365.927 59.896 365.907 59.9043 365.885 59.9066L365.945 59.8828Z"
            fill="#4B4B3B" />
        <path
            d="M394.218 58.79L396.026 60.263L393.78 60.4768L395.033 62.8526C398.366 65.5848 401.227 63.7792 401.794 61.4984C402.362 59.2176 399.891 56.3666 396.109 57.115L394.218 58.79Z"
            fill="#EDCBCE" />
        <path
            d="M336.572 1.68684C332.695 3.52811 329.61 7.88776 326.076 10.715C324.894 9.08756 323.086 4.89421 322.01 3.14798C322.01 3.0767 321.927 2.98167 321.844 3.06482C319.079 6.01086 318.298 12.6869 314.753 8.64803C311.939 5.45254 308.783 0.629595 305.107 0C304.824 0 304.871 1.18792 304.883 1.30671C305.616 12.6275 311.159 21.2399 319.705 22.0477C328.251 22.8555 336.017 13.7323 336.69 2.32832C336.714 2.26892 336.702 1.60369 336.572 1.68684Z"
            fill="#D67C70" />
        <path
            d="M326.892 4.77542C326.78 4.77775 326.672 4.81806 326.586 4.88978C326.499 4.96151 326.44 5.06045 326.416 5.17054C326.393 5.28062 326.408 5.39538 326.457 5.49617C326.507 5.59697 326.589 5.67788 326.691 5.72576C325.295 9.44493 324.746 13.4308 325.083 17.3911C325.083 17.7 325.379 17.9019 325.426 17.4742C325.639 15.5023 325.674 13.5304 325.934 11.5347C326.194 9.53897 326.714 7.67394 326.963 5.72576C327.061 5.68667 327.145 5.61692 327.201 5.5267C327.257 5.43648 327.283 5.33053 327.275 5.22434C327.267 5.11815 327.226 5.01729 327.157 4.93652C327.088 4.85575 326.995 4.79929 326.892 4.77542Z"
            fill="#DAD34F" />
        <path
            d="M317.4 20.254C316.868 18.0326 316.218 15.8587 315.911 13.6016C315.603 11.3446 315.58 9.39641 315.379 7.30568C315.486 7.286 315.583 7.22862 315.653 7.14378C315.722 7.05893 315.759 6.95213 315.757 6.8424V6.75924C315.757 6.62692 315.705 6.50001 315.612 6.40645C315.519 6.31288 315.392 6.26031 315.261 6.26031C315.129 6.26031 315.003 6.31288 314.91 6.40645C314.817 6.50001 314.764 6.62692 314.764 6.75924V6.8424C314.762 6.95213 314.799 7.05893 314.869 7.14378C314.938 7.22862 315.035 7.286 315.142 7.30568C314.764 11.5941 315.142 16.7377 317.105 20.6103C317.27 20.9311 317.435 20.4084 317.4 20.254Z"
            fill="#DAD34F" />
        <path
            d="M319.031 5.55946C319.129 5.53274 319.215 5.47361 319.275 5.39166C319.335 5.30972 319.366 5.20977 319.362 5.10805V5.0249C319.362 4.89257 319.31 4.76567 319.217 4.6721C319.124 4.57854 318.997 4.52597 318.866 4.52597C318.734 4.52597 318.608 4.57854 318.515 4.6721C318.422 4.76567 318.369 4.89257 318.369 5.0249V5.16745C318.363 5.28213 318.401 5.39483 318.476 5.48142C318.551 5.56801 318.657 5.62161 318.771 5.63073C317.562 10.0802 317.723 14.7934 319.232 19.1492C319.35 19.4581 319.516 19.1492 319.492 18.9354C318.85 14.5073 318.696 10.0216 319.031 5.55946Z"
            fill="#DAD34F" />
        <path
            d="M323.617 4.20521V4.28837C323.613 4.3628 323.628 4.43704 323.662 4.50372C323.695 4.5704 323.745 4.6272 323.806 4.6685C322.118 8.97604 321.537 13.6416 322.116 18.2345C322.116 18.4958 322.329 18.3652 322.341 18.1632C322.432 13.6317 323.071 9.12812 324.244 4.75166C324.351 4.73197 324.448 4.67459 324.517 4.58975C324.587 4.5049 324.624 4.3981 324.622 4.28837V4.20521C324.622 4.07131 324.569 3.9429 324.475 3.84822C324.381 3.75354 324.253 3.70035 324.12 3.70035C323.986 3.70035 323.859 3.75354 323.764 3.84822C323.67 3.9429 323.617 4.07131 323.617 4.20521Z"
            fill="#DAD34F" />
        <path
            d="M338.203 9.50332C333.816 10.901 329.583 12.7439 325.567 15.0034C324.244 13.6254 322.967 12.2118 321.761 10.7387C321.761 10.6675 321.655 10.5843 321.572 10.6556C318.452 13.1502 318.026 17.0228 313.972 13.6135C310.806 10.7403 306.898 8.82175 302.696 8.07782C302.365 8.07782 302.424 9.04003 302.436 9.18258C303.263 18.6859 310.036 31.2065 319.681 31.8837C329.527 32.5726 337.577 19.6244 338.345 10.0379C338.345 9.99036 338.333 9.4558 338.203 9.50332Z"
            fill="#E4A593" />
        <path
            d="M318.168 28.0704C318.183 27.9999 318.183 27.9272 318.168 27.8566C317.294 26.3836 316.147 25.1957 315.402 23.6158C314.658 22.0358 314.22 20.4559 313.582 18.9354C313.488 18.7097 313.358 18.9354 313.381 19.0898C313.631 21.038 314.186 22.9343 315.024 24.7086C315.261 25.1838 315.544 25.7659 315.887 26.3123C315.273 25.7334 314.715 25.097 314.22 24.4117C313.157 23.0099 312.424 21.3944 311.372 19.9926C311.183 19.7432 311.1 20.1827 311.147 20.3252C311.786 22.2443 312.745 24.0399 313.984 25.6352C314.729 26.6449 316.632 29.0208 318.121 28.308C318.151 28.277 318.171 28.2382 318.179 28.1962C318.187 28.1541 318.184 28.1105 318.168 28.0704Z"
            fill="#D57E6C" />
        <path
            d="M331.785 15.5498C330.412 17.1028 329.119 18.7244 327.908 20.4084C326.242 22.4991 324.362 24.3998 322.648 26.4311C322.566 26.5262 322.648 27.0964 322.755 26.9894L323.062 26.7281C323.062 26.7281 323.062 26.7875 323.133 26.7875C324.457 26.7875 325.84 25.5996 326.845 24.8037C328.2 23.7759 329.42 22.5783 330.473 21.2399C330.473 21.1687 330.473 20.7529 330.391 20.8242C329.207 21.561 328.099 22.4125 327.081 23.3663C326.566 23.7501 326.029 24.1031 325.473 24.4235C327.984 21.8779 330.132 18.9956 331.856 15.8587C331.856 15.8587 331.868 15.4667 331.785 15.5498Z"
            fill="#D57E6C" />
        <path
            d="M322.494 34.9366C325.426 33.5111 325.201 28.997 323.546 28.4625C322.028 28.094 320.451 28.0455 318.913 28.3199C318.449 28.4542 318.034 28.7229 317.721 29.0927C317.408 29.4624 317.21 29.9167 317.152 30.3988C317.306 32.1331 319.398 34.7822 321.017 35.0198C321.51 35.094 322.013 35.0657 322.494 34.9366Z"
            fill="#663399" />
        <path
            d="M340.875 67.4142C341.229 72.0115 337.494 76.0623 332.53 76.4424C327.566 76.8225 323.263 73.4132 322.92 68.816C322.578 64.2187 326.301 60.168 331.253 59.7878C336.206 59.4077 340.52 62.817 340.875 67.4142Z"
            fill="#C7686A" />
        <path
            d="M348.888 51.9238C352.836 54.2996 353.994 59.6571 351.465 63.9574C348.935 68.2577 343.676 69.897 339.716 67.5212C335.756 65.1453 334.622 59.7759 337.151 55.4757C339.68 51.1754 344.94 49.5717 348.888 51.9238Z"
            fill="#C7686A" />
        <path
            d="M340.851 36.4334C345.035 34.5208 350.082 36.671 352.139 41.1851C354.195 45.6991 352.482 50.9735 348.297 52.886C344.113 54.7986 339.066 52.6484 337.009 48.1344C334.953 43.6203 336.678 38.3341 340.851 36.4334Z"
            fill="#C7686A" />
        <path
            d="M323.617 34.1645C324.468 29.6266 329.113 26.7044 333.995 27.6191C338.877 28.5337 342.174 32.9528 341.323 37.4906C340.472 42.0285 335.839 44.9626 330.946 44.036C328.672 43.7011 326.624 42.4737 325.251 40.6231C323.877 38.7725 323.289 36.4498 323.617 34.1645Z"
            fill="#C7686A" />
        <path
            d="M311.892 47.0533C310.351 45.3387 309.55 43.0796 309.666 40.7721C309.781 38.4647 310.803 36.2975 312.507 34.7465C316.053 31.2541 321.549 31.0878 324.752 34.3783C325.524 35.2286 326.121 36.2242 326.508 37.3075C326.895 38.3908 327.065 39.5404 327.008 40.6901C326.951 41.8397 326.668 42.9666 326.175 44.0057C325.682 45.0449 324.99 45.9757 324.137 46.7445C320.58 50.1776 315.095 50.3082 311.892 47.0533Z"
            fill="#C7686A" />
        <path
            d="M315.663 64.1C311.136 64.8602 306.81 61.4747 305.994 56.5329C305.178 51.5912 308.193 47.0296 312.72 46.2456C317.247 45.4616 321.573 48.8709 322.388 53.8126C323.204 58.7543 320.19 63.3753 315.663 64.1Z"
            fill="#C7686A" />
        <path
            d="M331.726 70.7761C329.74 74.9338 324.504 76.5612 320.012 74.3398C315.521 72.1184 313.5 67.0579 315.474 62.9002C317.447 58.7425 322.696 57.115 327.187 59.277C331.679 61.439 333.7 66.6184 331.726 70.7761Z"
            fill="#C7686A" />
        <path
            d="M344.196 43.252C346.01 46.1901 346.916 49.6028 346.801 53.0586C346.685 56.5144 345.553 59.8582 343.547 62.6673C341.54 65.4764 338.751 67.6247 335.53 68.8406C332.309 70.0566 328.802 70.2855 325.452 69.4985C322.102 68.7116 319.059 66.944 316.708 64.4193C314.357 61.8947 312.804 58.7262 312.244 55.3144C311.685 51.9027 312.144 48.4008 313.565 45.2516C314.986 42.1023 317.303 39.447 320.225 37.6213C324.148 35.1776 328.875 34.398 333.369 35.4537C337.863 36.5093 341.757 39.314 344.196 43.252Z"
            fill="#A95050" />
        <path
            d="M344.609 43.941C346.327 46.7367 347.181 49.981 347.066 53.2645C346.95 56.548 345.87 59.7235 343.96 62.3903C342.051 65.0572 339.398 67.0959 336.337 68.2492C333.276 69.4026 329.944 69.6189 326.761 68.8708C323.577 68.1227 320.686 66.4438 318.451 64.0459C316.216 61.648 314.738 58.6385 314.203 55.3973C313.669 52.156 314.101 48.8282 315.446 45.8337C316.791 42.8392 318.989 40.3122 321.762 38.5716C323.611 37.4107 325.67 36.6284 327.821 36.27C329.973 35.9115 332.173 35.9838 334.296 36.4828C336.419 36.9818 338.424 37.8975 340.193 39.1775C341.963 40.4574 343.464 42.0763 344.609 43.941Z"
            fill="#CF7776" />
        <path
            d="M319.611 57.4357C317.128 56.034 317.341 50.9141 320.083 45.9961C322.826 41.0781 327.057 38.2153 329.539 39.617C332.022 41.0187 331.821 46.1387 329.078 51.0566C326.336 55.9746 322.093 58.8612 319.611 57.4357Z"
            fill="#D58682" />
        <path
            d="M344.397 58.8969C342.979 59.0519 341.63 59.5941 340.496 60.4649C339.172 61.736 339.444 64.7414 339.444 64.7414C339.154 64.3621 338.78 64.0569 338.35 63.8505C337.921 63.6441 337.45 63.5423 336.974 63.5535C335.759 63.878 334.668 64.5607 333.842 65.5136C333.842 65.5136 335.13 63.1377 334.007 61.9498C333.608 61.5967 333.141 61.3308 332.634 61.1693C332.127 61.0077 331.592 60.9539 331.064 61.0114C332.074 60.1241 332.818 58.9726 333.215 57.6852C333.653 55.8202 332.151 53.183 332.151 53.183C333.364 53.1413 334.525 52.6797 335.437 51.8763C337.08 50.5102 337.364 47.5523 337.364 47.5523C337.364 47.5523 338.688 49.2629 339.811 49.156C340.934 49.049 342.801 46.5425 342.801 46.5425C342.801 46.5425 341.536 49.1797 342.529 50.1063C343.522 50.8233 344.667 51.299 345.874 51.4961C345.248 51.8735 344.706 52.3761 344.281 52.9728C343.856 53.5694 343.557 54.2475 343.404 54.9649C343.238 56.3539 343.592 57.7552 344.397 58.8969Z"
            fill="#A84E4E" />
        <path
            d="M322.884 63.6248C323.038 63.7198 322.979 63.4704 322.884 63.411C319.433 59.8472 315.958 56.0221 316.088 50.819C317.081 53.6225 319.799 56.3666 321.927 58.0891C322.045 58.1841 322.033 58.0059 321.927 57.9465C319.726 55.4654 317.774 52.7716 316.1 49.9044C316.1 49.8331 315.97 49.6074 315.911 49.6905C315.852 49.7737 315.722 49.6905 315.757 49.8212V49.9637C314.055 54.5253 319.362 61.3559 322.884 63.6248Z"
            fill="#A94F4F" />
        <path
            d="M320.698 42.468L321.23 42.2304C321.23 42.3017 321.324 42.3967 321.36 42.3967C323.055 42.4381 324.75 42.3068 326.419 42.0047C328.097 41.8978 329.752 42.3017 331.407 42.2067C331.56 42.2067 331.288 41.8147 331.206 41.779C328.026 40.5911 324.811 41.1851 321.655 42.0404C323.44 41.2563 325.201 40.3892 327.033 39.7596C329.593 38.9805 332.31 38.8864 334.917 39.4863C334.988 39.4863 334.834 39.2488 334.799 39.225C330.201 36.8492 324.362 39.4982 320.615 42.2898C320.532 42.3255 320.698 42.4918 320.698 42.468Z"
            fill="#A94F4F" />
        <path
            d="M318.228 46.2693C319.765 46.3642 321.291 46.5907 322.79 46.9465C324.481 47.4967 326.119 48.2005 327.684 49.0491C327.849 49.1203 327.766 48.8709 327.684 48.8234C325.32 46.9583 321.242 45.1171 318.157 46.103C318.086 46.1268 318.157 46.2693 318.228 46.2693Z"
            fill="#A94F4F" />
        <path
            d="M324.079 41.5295C324.075 38.3517 322.894 35.289 320.766 32.939C318.637 30.589 315.714 29.1201 312.566 28.8188C311.549 26.3442 309.784 24.2534 307.52 22.8421C305.256 21.4309 302.607 20.7705 299.95 20.9543C297.292 21.1382 294.759 22.157 292.708 23.8667C290.658 25.5764 289.195 27.8905 288.524 30.4819C285.873 30.88 283.414 32.1117 281.502 34.0004C279.589 35.8891 278.321 38.3379 277.879 40.9956C277.437 43.6534 277.843 46.3836 279.04 48.7949C280.237 51.2062 282.162 53.1748 284.541 54.4184C283.86 57.2231 284.145 60.1768 285.349 62.7978C286.554 65.4187 288.606 67.5523 291.172 68.8505C293.737 70.1488 296.665 70.535 299.477 69.9462C302.289 69.3575 304.82 67.8284 306.656 65.6086C307.617 65.8327 308.601 65.9482 309.587 65.9531C311.603 65.9543 313.589 65.4729 315.382 64.5487C317.175 63.6246 318.724 62.2843 319.899 60.6389C321.074 58.9935 321.842 57.0904 322.139 55.0873C322.436 53.0842 322.254 51.0387 321.608 49.1203C323.224 46.9237 324.091 44.2612 324.079 41.5295Z"
            fill="#F2DDC8" />
        <path
            d="M315.462 58.3267C317.433 56.9132 318.811 54.8131 319.326 52.435C319.842 50.057 319.459 47.5712 318.251 45.4615C319.344 43.7228 319.863 41.682 319.735 39.6294C319.608 37.5769 318.839 35.6171 317.539 34.0289C316.239 32.4407 314.474 31.305 312.494 30.7834C310.515 30.2617 308.422 30.3807 306.514 31.1234C305.085 29.6698 303.238 28.7032 301.234 28.36C299.23 28.0167 297.169 28.3139 295.342 29.2098C293.514 30.1058 292.013 31.5552 291.048 33.354C290.084 35.1528 289.705 37.2104 289.966 39.2369C287.925 40.0553 286.219 41.5442 285.128 43.461C284.036 45.3779 283.623 47.6097 283.954 49.793C284.286 51.9763 285.343 53.9825 286.954 55.4846C288.566 56.9867 290.635 57.8964 292.826 58.0653C293.103 58.7721 293.464 59.4424 293.902 60.061C294.641 61.1094 295.579 62.0008 296.661 62.6843C297.744 63.3677 298.95 63.8298 300.211 64.0438C301.471 64.2579 302.761 64.2199 304.007 63.9319C305.253 63.6439 306.43 63.1116 307.471 62.3656C308.341 61.7507 309.101 60.9914 309.717 60.1204C311.772 60.1458 313.783 59.518 315.462 58.3267Z"
            fill="#F1D4B0" />
        <path
            d="M314.954 43.3114C314.942 41.6238 314.302 40.0016 313.16 38.764C312.018 37.5264 310.457 36.7628 308.784 36.6235C308.233 35.3153 307.287 34.2142 306.079 33.4761C304.872 32.738 303.464 32.4002 302.055 32.5106C300.646 32.6209 299.307 33.1738 298.228 34.091C297.149 35.0082 296.384 36.2432 296.042 37.6213C294.648 37.8552 293.362 38.5238 292.367 39.5324C291.372 40.5411 290.717 41.8387 290.496 43.2417C290.275 44.6447 290.499 46.0821 291.136 47.3502C291.773 48.6184 292.79 49.6532 294.044 50.3083C293.922 50.834 293.858 51.372 293.855 51.9119C293.868 53.3057 294.308 54.6615 295.116 55.7949C295.923 56.9283 297.058 57.7843 298.366 58.2464C299.675 58.7085 301.093 58.7543 302.428 58.3776C303.763 58.0009 304.951 57.2199 305.829 56.1409C306.823 56.3727 307.857 56.3748 308.852 56.1471C309.847 55.9194 310.778 55.4678 311.574 54.8263C312.371 54.1848 313.012 53.3701 313.45 52.4435C313.888 51.5169 314.111 50.5025 314.103 49.4767C314.099 48.732 313.971 47.9931 313.724 47.291C314.545 46.1299 314.976 44.7357 314.954 43.3114Z"
            fill="#ECCAA2" />
        <path
            d="M308.275 44.535C308.266 43.7674 307.973 43.0306 307.453 42.4684C306.933 41.9062 306.223 41.5588 305.462 41.4939C305.212 40.8959 304.781 40.3922 304.23 40.0542C303.679 39.7163 303.036 39.5614 302.392 39.6113C301.749 39.6613 301.137 39.9136 300.644 40.3326C300.151 40.7515 299.802 41.3158 299.646 41.9453C299.007 42.0495 298.418 42.3538 297.961 42.8148C297.504 43.2758 297.204 43.87 297.103 44.5126C297.002 45.1553 297.106 45.8135 297.399 46.3935C297.692 46.9734 298.16 47.4455 298.736 47.7423C298.685 47.9845 298.657 48.2312 298.654 48.4788C298.648 49.1242 298.845 49.7549 299.214 50.2825C299.584 50.8101 300.109 51.208 300.716 51.4203C301.322 51.6326 301.979 51.6487 302.595 51.4663C303.211 51.2839 303.755 50.9121 304.15 50.4033C304.382 50.4575 304.621 50.4815 304.859 50.4745C305.263 50.4714 305.662 50.3885 306.033 50.2304C306.405 50.0723 306.742 49.8422 307.025 49.5531C307.308 49.2641 307.532 48.9219 307.684 48.546C307.835 48.17 307.912 47.7678 307.909 47.3622C307.899 47.0265 307.839 46.6942 307.731 46.3762C308.098 45.8337 308.287 45.1904 308.275 44.535Z"
            fill="#F1CEB4" />
        <path
            d="M301.207 43.454C300.966 43.5292 300.755 43.6798 300.606 43.884C300.456 44.0881 300.375 44.3349 300.375 44.5884C300.375 44.8419 300.456 45.0888 300.606 45.2929C300.755 45.497 300.966 45.6477 301.207 45.7229C301.448 45.6477 301.658 45.497 301.808 45.2929C301.958 45.0888 302.038 44.8419 302.038 44.5884C302.038 44.3349 301.958 44.0881 301.808 43.884C301.658 43.6798 301.448 43.5292 301.207 43.454Z"
            fill="#66594C" />
        <path
            d="M300.604 46.1505H300.486C300.245 46.2257 300.034 46.3764 299.885 46.5805C299.735 46.7846 299.654 47.0315 299.654 47.285C299.654 47.5385 299.735 47.7854 299.885 47.9895C300.034 48.1936 300.245 48.3443 300.486 48.4195H300.604C300.845 48.3443 301.055 48.1936 301.205 47.9895C301.355 47.7854 301.435 47.5385 301.435 47.285C301.435 47.0315 301.355 46.7846 301.205 46.5805C301.055 46.3764 300.845 46.2257 300.604 46.1505Z"
            fill="#66594C" />
        <path
            d="M301.703 48.1106V48.2175C301.775 48.4643 301.924 48.681 302.129 48.8352C302.333 48.9895 302.582 49.0728 302.838 49.0728C303.094 49.0728 303.342 48.9895 303.547 48.8352C303.752 48.681 303.901 48.4643 303.973 48.2175V48.1106C303.901 47.8639 303.752 47.6471 303.547 47.4929C303.342 47.3387 303.094 47.2553 302.838 47.2553C302.582 47.2553 302.333 47.3387 302.129 47.4929C301.924 47.6471 301.775 47.8639 301.703 48.1106Z"
            fill="#66594C" />
        <path
            d="M303.547 44.6181H303.311C303.065 44.6901 302.85 44.8402 302.696 45.0458C302.543 45.2514 302.46 45.5015 302.46 45.7585C302.46 46.0156 302.543 46.2657 302.696 46.4713C302.85 46.6769 303.065 46.827 303.311 46.8989H303.547C303.793 46.827 304.009 46.6769 304.162 46.4713C304.315 46.2657 304.398 46.0156 304.398 45.7585C304.398 45.5015 304.315 45.2514 304.162 45.0458C304.009 44.8402 303.793 44.6901 303.547 44.6181Z"
            fill="#66594C" />
        <path
            d="M305.178 42.3967C304.933 42.4687 304.717 42.6188 304.564 42.8244C304.41 43.03 304.327 43.2801 304.327 43.5371C304.327 43.7942 304.41 44.0443 304.564 44.2499C304.717 44.4555 304.933 44.6056 305.178 44.6775C305.424 44.6056 305.639 44.4555 305.793 44.2499C305.946 44.0443 306.029 43.7942 306.029 43.5371C306.029 43.2801 305.946 43.03 305.793 42.8244C305.639 42.6188 305.424 42.4687 305.178 42.3967Z"
            fill="#66594C" />
        <path
            d="M302.968 41.8146H302.85C302.609 41.8898 302.398 42.0405 302.249 42.2446C302.099 42.4487 302.019 42.6956 302.019 42.9491C302.019 43.2026 302.099 43.4495 302.249 43.6536C302.398 43.8577 302.609 44.0084 302.85 44.0836H302.968C303.209 44.0084 303.42 43.8577 303.569 43.6536C303.719 43.4495 303.8 43.2026 303.8 42.9491C303.8 42.6956 303.719 42.4487 303.569 42.2446C303.42 42.0405 303.209 41.8898 302.968 41.8146Z"
            fill="#66594C" />
        <path
            d="M298.76 43.7985C298.515 43.8704 298.299 44.0205 298.146 44.2261C297.992 44.4317 297.909 44.6818 297.909 44.9389C297.909 45.1959 297.992 45.446 298.146 45.6516C298.299 45.8572 298.515 46.0073 298.76 46.0793C299.006 46.0073 299.221 45.8572 299.375 45.6516C299.528 45.446 299.611 45.1959 299.611 44.9389C299.611 44.6818 299.528 44.4317 299.375 44.2261C299.221 44.0205 299.006 43.8704 298.76 43.7985Z"
            fill="#66594C" />
        <path
            d="M304.387 47.9918V48.1106C304.458 48.3573 304.608 48.5741 304.812 48.7283C305.017 48.8825 305.266 48.9659 305.521 48.9659C305.777 48.9659 306.026 48.8825 306.231 48.7283C306.435 48.5741 306.585 48.3573 306.656 48.1106V47.9918C306.585 47.7451 306.435 47.5283 306.231 47.3741C306.026 47.2199 305.777 47.1365 305.521 47.1365C305.266 47.1365 305.017 47.2199 304.812 47.3741C304.608 47.5283 304.458 47.7451 304.387 47.9918Z"
            fill="#66594C" />
        <path
            d="M306.573 44.3687C306.332 44.4438 306.122 44.5945 305.972 44.7986C305.822 45.0027 305.742 45.2496 305.742 45.5031C305.742 45.7566 305.822 46.0035 305.972 46.2076C306.122 46.4117 306.332 46.5624 306.573 46.6376C306.814 46.5624 307.025 46.4117 307.174 46.2076C307.324 46.0035 307.404 45.7566 307.404 45.5031C307.404 45.2496 307.324 45.0027 307.174 44.7986C307.025 44.5945 306.814 44.4438 306.573 44.3687Z"
            fill="#66594C" />
        <path
            d="M298.347 40.7218C298.347 40.8667 298.404 41.0057 298.506 41.1082C298.608 41.2106 298.746 41.2682 298.89 41.2682C299.035 41.2682 299.173 41.2106 299.275 41.1082C299.377 41.0057 299.434 40.8667 299.434 40.7218C299.434 40.5768 299.377 40.4378 299.275 40.3354C299.173 40.2329 299.035 40.1753 298.89 40.1753C298.746 40.1753 298.608 40.2329 298.506 40.3354C298.404 40.4378 298.347 40.5768 298.347 40.7218Z"
            fill="#F1DCC7" />
        <path
            d="M296.786 48.7758H296.715C296.571 48.7758 296.433 48.8334 296.331 48.9359C296.229 49.0383 296.171 49.1773 296.171 49.3223C296.171 49.4672 296.229 49.6062 296.331 49.7087C296.433 49.8111 296.571 49.8687 296.715 49.8687H296.786C296.93 49.8687 297.069 49.8111 297.17 49.7087C297.272 49.6062 297.33 49.4672 297.33 49.3223C297.33 49.1773 297.272 49.0383 297.17 48.9359C297.069 48.8334 296.93 48.7758 296.786 48.7758Z"
            fill="#F1DCC7" />
        <path
            d="M305.155 52.1376C305.01 52.1376 304.872 52.1952 304.77 52.2977C304.668 52.4002 304.611 52.5391 304.611 52.6841C304.611 52.829 304.668 52.968 304.77 53.0705C304.872 53.1729 305.01 53.2305 305.155 53.2305C305.299 53.2305 305.437 53.1729 305.539 53.0705C305.641 52.968 305.698 52.829 305.698 52.6841C305.698 52.5391 305.641 52.4002 305.539 52.2977C305.437 52.1952 305.299 52.1376 305.155 52.1376Z"
            fill="#F1DCC7" />
        <path
            d="M310.308 42.3611C310.179 42.3803 310.061 42.4455 309.976 42.5447C309.891 42.6439 309.844 42.7706 309.844 42.9016C309.844 43.0326 309.891 43.1592 309.976 43.2584C310.061 43.3577 310.179 43.4228 310.308 43.4421C310.437 43.4228 310.555 43.3577 310.64 43.2584C310.725 43.1592 310.772 43.0326 310.772 42.9016C310.772 42.7706 310.725 42.6439 310.64 42.5447C310.555 42.4455 310.437 42.3803 310.308 42.3611Z"
            fill="#F1DCC7" />
        <path
            d="M306.774 37.9896H306.703C306.559 37.9896 306.421 38.0471 306.319 38.1496C306.217 38.2521 306.16 38.3911 306.16 38.536C306.16 38.6809 306.217 38.8199 306.319 38.9224C306.421 39.0249 306.559 39.0824 306.703 39.0824H306.774C306.918 39.0824 307.057 39.0249 307.159 38.9224C307.261 38.8199 307.318 38.6809 307.318 38.536C307.318 38.3911 307.261 38.2521 307.159 38.1496C307.057 38.0471 306.918 37.9896 306.774 37.9896Z"
            fill="#F1DCC7" />
        <path
            d="M298.831 53.2068C298.702 53.226 298.584 53.2912 298.499 53.3904C298.414 53.4896 298.367 53.6162 298.367 53.7473C298.367 53.8783 298.414 54.0049 298.499 54.1041C298.584 54.2033 298.702 54.2685 298.831 54.2878C298.96 54.2685 299.078 54.2033 299.163 54.1041C299.248 54.0049 299.295 53.8783 299.295 53.7473C299.295 53.6162 299.248 53.4896 299.163 53.3904C299.078 53.2912 298.96 53.226 298.831 53.2068Z"
            fill="#F1DCC7" />
        <path
            d="M291.527 41.8978C291.054 41.7909 290.699 42.563 291.172 42.9313H291.231C291.314 42.9841 291.411 43.0121 291.509 43.0121C291.607 43.0121 291.704 42.9841 291.787 42.9313C292.33 42.5749 291.988 41.8265 291.527 41.8978Z"
            fill="#F1DCC7" />
        <path
            d="M312.247 48.3244C312.266 48.454 312.331 48.5724 312.429 48.6579C312.528 48.7435 312.654 48.7905 312.784 48.7905C312.915 48.7905 313.041 48.7435 313.139 48.6579C313.238 48.5724 313.303 48.454 313.322 48.3244C313.303 48.1949 313.238 48.0765 313.139 47.991C313.041 47.9054 312.915 47.8583 312.784 47.8583C312.654 47.8583 312.528 47.9054 312.429 47.991C312.331 48.0765 312.266 48.1949 312.247 48.3244Z"
            fill="#F1DCC7" />
        <path
            d="M301.384 33.4398C301.296 33.3622 301.186 33.3139 301.07 33.3015C300.953 33.289 300.836 33.313 300.734 33.3703C300.631 33.4276 300.549 33.5152 300.498 33.6212C300.448 33.7273 300.431 33.8465 300.45 33.9625C300.45 33.9625 300.45 33.9625 300.45 34.0219C300.472 34.1144 300.519 34.1989 300.585 34.266C300.652 34.3332 300.736 34.3803 300.828 34.4021C301.431 34.4733 301.786 33.6774 301.384 33.4398Z"
            fill="#F1DCC7" />
        <path
            d="M307.826 57.9465C307.697 57.9658 307.579 58.031 307.494 58.1302C307.409 58.2294 307.362 58.356 307.362 58.487C307.362 58.618 307.409 58.7447 307.494 58.8439C307.579 58.9431 307.697 59.0083 307.826 59.0275C307.955 59.0083 308.073 58.9431 308.158 58.8439C308.243 58.7447 308.29 58.618 308.29 58.487C308.29 58.356 308.243 58.2294 308.158 58.1302C308.073 58.031 307.955 57.9658 307.826 57.9465Z"
            fill="#F1DCC7" />
        <path
            d="M289.718 49.9637H289.635C289.553 49.9667 289.472 49.988 289.399 50.0262C289.326 50.0643 289.262 50.1183 289.213 50.1843C289.163 50.2502 289.128 50.3264 289.111 50.4075C289.095 50.4885 289.096 50.5723 289.115 50.6527C289.149 50.7647 289.218 50.8628 289.312 50.9325C289.405 51.0022 289.519 51.0398 289.635 51.0398C289.752 51.0398 289.865 51.0022 289.959 50.9325C290.052 50.8628 290.121 50.7647 290.155 50.6527C290.321 50.3676 290.167 49.9162 289.718 49.9637Z"
            fill="#F1DCC7" />
        <path
            d="M316.762 34.9366C316.674 34.859 316.564 34.8107 316.448 34.7982C316.331 34.7858 316.214 34.8098 316.112 34.8671C316.009 34.9243 315.927 35.012 315.876 35.118C315.826 35.224 315.809 35.3432 315.828 35.4593V35.5187C315.85 35.6111 315.897 35.6957 315.963 35.7628C316.03 35.83 316.114 35.8771 316.206 35.8988H316.265C316.821 35.9701 317.152 35.2217 316.762 34.9366Z"
            fill="#F1DCC7" />
        <path
            d="M89.0868 74.3635C89.1826 74.4338 89.2857 74.4936 89.3942 74.5417L89.1932 74.4111C89.6549 74.6159 90.1453 74.7482 90.6471 74.8031C91.9354 75.005 93.8621 74.4942 95.8124 74.4586C93.8148 74.3517 92.0064 73.7458 90.6471 73.924C90.0913 73.9594 89.5465 74.0963 89.0396 74.3279C89.163 74.283 89.2787 74.2188 89.3823 74.1378C89.3823 74.1378 89.2641 74.1378 89.0396 74.3279C89.5006 74.0056 89.9009 73.6034 90.2215 73.14C91.0962 72.0827 91.569 70.2177 92.5855 68.4596C93.0999 67.6018 93.8571 66.9176 94.7603 66.4944C95.6636 66.0712 96.6718 65.9282 97.6563 66.0838C98.9948 66.2756 100.27 66.7801 101.38 67.5568C101.441 68.9156 101.186 70.2701 100.635 71.5125C100.232 72.4282 99.5676 73.2028 98.7257 73.7379C97.8839 74.273 96.9027 74.5446 95.9069 74.518C96.9114 74.5316 97.8893 74.8433 98.718 75.414C99.5466 75.9847 100.189 76.7888 100.564 77.7253C101.078 78.9716 101.265 80.3295 101.108 81.6692C99.992 82.4476 98.691 82.9149 97.3371 83.0234C96.3426 83.129 95.3394 82.9346 94.4552 82.4649C93.5711 81.9952 92.8461 81.2716 92.3728 80.3863C91.4508 78.5688 91.0608 76.6681 90.2452 75.6346C89.9427 75.141 89.5496 74.7096 89.0868 74.3635Z"
            fill="#E8CE79" />
        <path
            d="M89.0985 74.1497V73.9121C89.0827 74.0344 89.0827 74.1581 89.0985 74.2804C89.0737 73.7216 88.9412 73.1729 88.7085 72.6648C88.2357 71.3819 86.8527 70.0395 85.8126 68.2814C85.3213 67.4079 85.0994 66.4074 85.1752 65.4069C85.2509 64.4065 85.6209 63.4512 86.2381 62.6626C87.0541 61.5749 88.1376 60.7193 89.3822 60.1798C90.6005 60.7591 91.6475 61.6476 92.4199 62.7576C93.012 63.5873 93.343 64.5762 93.3704 65.5968C93.3978 66.6174 93.1203 67.6228 92.5736 68.4833C91.498 70.1108 90.0441 71.4888 89.5359 72.6886C89.3093 73.1474 89.1614 73.6414 89.0985 74.1497Z"
            fill="#E8CE79" />
        <path
            d="M77.5151 77.2264C77.9174 76.3095 78.5815 75.5333 79.4232 74.9962C80.2649 74.459 81.2463 74.1851 82.2431 74.2091C81.2389 74.2011 80.2598 73.893 79.4305 73.324C78.6011 72.7549 77.9591 71.9506 77.5861 71.0136C77.065 69.7652 76.8775 68.4015 77.0423 67.0578C78.1657 66.2933 79.471 65.8424 80.8247 65.7511C81.818 65.6445 82.8204 65.8372 83.7044 66.3047C84.5884 66.7721 85.314 67.4933 85.7891 68.3764C86.711 70.1939 87.1011 72.0946 87.9167 73.1281C88.2359 73.5926 88.6364 73.9951 89.0987 74.316H88.9923C88.5296 74.1161 88.0394 73.9879 87.5384 73.9359C86.2619 73.7339 84.3234 74.2329 82.3731 74.2685C84.3707 74.3873 86.1791 74.9931 87.5384 74.8031C88.0975 74.7726 88.6462 74.6397 89.1578 74.4111C88.7002 74.7376 88.3006 75.1391 87.9758 75.599C87.1011 76.6562 86.6401 78.5212 85.6709 80.2794C86.7347 78.64 88.2003 77.2621 88.7086 76.0741C88.8969 75.5841 89.0047 75.0665 89.0277 74.5417C89.0336 74.5023 89.0336 74.4623 89.0277 74.4229C89.0598 74.9807 89.1919 75.528 89.4178 76.0385C89.8906 77.3214 91.2735 78.6638 92.3137 80.41C92.806 81.2853 93.0284 82.2878 92.9526 83.2904C92.8769 84.2929 92.5064 85.2503 91.8882 86.0408C91.0774 87.1308 89.9921 87.9837 88.744 88.5116C87.528 87.9342 86.4815 87.0502 85.7063 85.9457C85.1179 85.128 84.7836 84.1534 84.7458 83.1449C84.7079 82.1365 84.9681 81.1393 85.4936 80.2794C84.9769 81.1349 84.2193 81.8173 83.3167 82.2402C82.4142 82.6631 81.4071 82.8075 80.4228 82.6552C79.1037 82.4661 77.8479 81.9654 76.7587 81.1941C76.6942 79.8299 76.9535 78.47 77.5151 77.2264Z"
            fill="#E8CE79" />
        <path
            d="M23.6871 73.3182H22.8243C17.5644 76.5374 18.7818 84.9479 3.73509 86.0764C4.4561 81.5861 8.38031 76.9176 13.191 74.3398C9.86962 74.6605 5.82722 73.8884 0 69.5168C5.90996 64.5632 19.3728 66.3689 23.8644 72.6767C24.6327 72.6767 25.4365 72.5698 26.2284 72.4985C27.0203 72.4272 28.1078 72.356 29.1124 72.2372C30.1171 72.1184 31.1573 72.0233 32.2329 71.857L33.2494 71.7145C34.4 71.3558 35.5918 71.1482 36.7954 71.0968C38.6748 70.7404 40.6132 70.3009 42.599 69.8019C43.3436 69.6119 44.1119 69.398 44.8684 69.1842C38.4029 69.4693 30.7791 66.4164 28.0841 61.534C35.1051 59.5859 39.1357 60.3461 42.1144 61.8429C38.5684 57.6852 36.6063 51.9119 37.5401 47.4691C51.8303 54.3115 46.535 62.1161 51.3457 67.0103C52.1258 66.7134 52.9059 66.4164 53.7097 66.0838L57.3384 64.3969L64.4304 60.5481C65.6124 59.9541 66.7116 59.3602 67.87 58.8969C60.9198 59.182 52.1967 54.7273 49.9746 48.8471C57.1847 47.9324 61.0735 49.251 63.8039 51.2229C60.8844 46.6019 59.7497 40.603 61.3099 36.3383C74.2172 44.9745 68.4018 51.7812 71.9478 57.2932C74.1752 56.4846 76.4536 55.8258 78.7679 55.3212C79.9499 55.048 81.0373 54.8936 82.1248 54.6798C83.2122 54.4659 84.2878 54.4184 85.2925 54.2878C86.2972 54.1571 87.2901 54.1333 88.2239 54.1096C89.1576 54.0858 90.0323 54.1096 90.8715 54.1096C92.3031 54.1585 93.7313 54.2814 95.1503 54.4778C96.0611 54.6037 96.9647 54.7782 97.8571 55.0005C98.173 55.0696 98.4848 55.1569 98.7908 55.2618C97.5764 55.0346 96.3484 54.8878 95.1148 54.8223C93.7014 54.7481 92.285 54.7481 90.8715 54.8223C89.2285 54.8817 87.3965 55.0599 85.4107 55.2975C84.4178 55.4757 83.3777 55.6182 82.3257 55.832C81.2737 56.0459 80.1745 56.2835 79.0634 56.6042C76.7432 57.2407 74.4586 58.0021 72.2197 58.885C69.8355 59.8406 67.5037 60.9231 65.2341 62.128L61.1562 64.3969C62.0782 71.2631 71.5341 71.6788 68.3427 87.3356C64.2412 85.3993 60.8607 80.3387 59.6906 74.9931C59.0996 78.2837 57.2438 81.9781 51.4166 86.4209C48.8399 80.5763 52.0667 70.978 57.3266 66.4045L54.3007 67.7706C53.036 68.3052 51.7594 68.7447 50.4947 69.2317C48.0023 70.094 45.4651 70.8197 42.8945 71.4056C41.3815 71.762 39.8804 72.0471 38.4147 72.2847C36.7363 78.3906 43.8046 83.463 33.8286 95.0927C31.1809 91.3982 30.6727 85.3161 32.2565 80.0655C30.1408 82.6552 26.7366 84.9835 19.5383 86.0051C19.9757 81.1228 24.4672 76.0147 29.6207 73.235H29.077C27.2213 73.3419 25.3419 73.3419 23.6871 73.3182Z"
            fill="#C4B985" />
        <path
            d="M58.5085 23.9009L59.3005 24.2097C59.6905 24.3523 60.0688 24.4948 60.4825 24.6493L61.3926 25.0532L62.1963 25.4214L63.1419 25.9085L63.7093 26.2173C64.0402 26.4074 64.3594 26.5975 64.6549 26.7875L64.9858 27.0013L65.9905 27.7022C70.3757 31.0403 71.1322 34.9129 69.9384 38.7974C68.7446 42.6818 65.9551 45.4497 60.4825 45.7229H58.7686L57.7284 45.6516L57.0192 45.5803L56.0263 45.4616L55.1044 45.2952L54.1588 45.1289L52.9768 44.8438L52.1849 44.6538C51.4757 44.4637 50.7547 44.2618 49.9982 44.0242C39.703 40.8406 31.6655 29.0089 28.4741 25.9203C32.5402 25.2314 44.3955 20.6341 54.3243 22.6179L54.6198 22.6773C55.2226 22.8199 55.8018 22.9624 56.4046 23.1406C57.1138 23.4138 57.823 23.6514 58.5085 23.9009Z"
            fill="#663399" />
        <path
            d="M28.6395 26.1698L28.4268 25.956C32.4928 25.267 44.3482 20.6697 54.2769 22.6535L54.5724 22.7129C55.1752 22.8555 55.7544 22.998 56.3572 23.1762C57.1137 23.4138 57.8229 23.6514 58.5084 23.9009L59.3004 24.2097C59.6904 24.3523 60.0687 24.4948 60.4824 24.6492L61.3925 25.0531L62.1963 25.4214L63.1418 25.9084L63.7092 26.2173C64.0402 26.4074 64.3593 26.5974 64.6548 26.7875L64.9858 27.0013L65.9904 27.7022C70.3756 31.0402 71.1321 34.9128 69.9383 38.7973C69.7435 39.4354 69.4944 40.0554 69.1936 40.6505C57.1137 32.7152 42.9298 28.4625 28.6395 26.1698Z"
            fill="#3A3D30" />
        <path
            d="M54.0645 40.2466C54.0645 40.2466 53.8044 40.1278 53.9463 40.1159C57.9177 39.8665 61.8656 40.2941 65.6362 38.7974C63.3961 37.1945 61.0234 35.7876 58.5442 34.5921C55.5806 34.431 52.6085 34.6264 49.6911 35.1742C49.6911 35.1742 49.3601 35.0792 49.4665 35.0317C52.0133 34.118 54.7323 33.7932 57.4213 34.0813C56.0384 33.4636 54.62 32.8934 53.1425 32.3826C52.4688 32.1569 51.8069 31.9431 51.1213 31.7411C48.2136 33.6299 43.2138 33.523 39.916 33.1429C39.916 33.1429 39.6205 33.0122 39.7742 33.0003C43.3555 32.7928 46.9135 32.2882 50.4121 31.4917C46.2633 30.3038 42.02 29.4603 37.8594 28.3199C37.7057 28.3199 37.6702 28.1299 37.8594 28.1655C39.9515 28.5338 42.0554 28.9614 44.1357 29.4484C42.5991 27.4884 40.3888 26.9063 38.2258 25.754C38.0721 25.659 38.2258 25.5996 38.3085 25.6352C39.6731 26.0012 40.9873 26.5359 42.2209 27.227C43.0365 27.6903 44.5849 28.4981 44.6558 29.6029C47.8235 30.3631 50.9795 31.2541 54.1117 32.2757C55.1519 32.6241 56.2039 33.0201 57.2677 33.4636C55.8092 31.1522 53.7709 29.2675 51.3577 27.9992C49.632 27.0489 47.8117 26.2886 46.0742 25.3739C45.9205 25.3026 46.0742 25.2195 46.1451 25.2551C49.6911 26.5143 57.2204 29.1633 57.7996 33.6893C59.8071 34.4784 61.7413 35.4444 63.5795 36.5759C63.3895 35.611 62.9854 34.7015 62.3975 33.915C61.7592 33.036 60.92 32.3232 60.2699 31.4441C60.1872 31.3254 60.4709 31.3729 60.5181 31.4441C61.9602 32.4895 64.6433 34.8535 64.0641 36.968C65.4283 37.8525 66.6892 38.8886 67.8228 40.0565C68.0711 40.3179 67.5037 40.2704 67.3855 40.1753C66.9127 39.8071 66.4281 39.4507 65.9553 39.1062C62.7757 41.0663 57.5986 40.5079 54.0645 40.2466Z"
            fill="#FDFCEC" />
        <path
            d="M13.3092 47.6236L10.9452 47.7424L12.6236 49.2391L10.2597 50.427C5.96902 50.6527 4.72793 47.5048 5.61443 45.3309C6.50092 43.157 10.1651 42.3136 12.7773 45.1646L13.3092 47.6236Z"
            fill="#EDCBCE" />
        <path
            d="M24.1719 65.2403L22.1389 66.4283L22.7654 64.2425L20.1295 64.5632C16.3826 66.6896 17.0327 70.0276 18.9475 71.3819C20.8624 72.7361 24.3847 71.4531 25.0584 67.6518L24.1719 65.2403Z"
            fill="#EDCBCE" />
        <path
            d="M25.98 44.1311L23.616 44.2499L25.3062 45.7466L22.9423 46.9346H23.0014C18.6989 47.1603 17.4578 44.0004 18.3443 41.8265C19.2308 39.6526 22.895 38.8211 25.5072 41.6721L25.98 44.1311Z"
            fill="#EDCBCE" />
        <path
            d="M36.3461 61.6766L34.3131 62.8645L34.9395 60.6906L32.2919 60.9995C28.545 63.1258 29.1832 66.4639 31.1099 67.8181C33.0365 69.1723 36.5589 67.8894 37.2326 64.0881L36.3461 61.6766Z"
            fill="#EDCBCE" />
        <path
            d="M38.202 40.3891L35.838 40.5079L37.5519 41.9928L35.1879 43.1807C30.8972 43.4064 29.6562 40.2585 30.5426 38.0727C31.4291 35.8869 35.0933 35.0673 37.7055 37.9183L38.202 40.3891Z"
            fill="#EDCBCE" />
        <path
            d="M48.7571 58.0416L46.7241 59.2295L47.3387 57.0556L44.7147 57.3763C40.9678 59.5027 41.6061 62.8408 43.5327 64.195C45.4594 65.5492 48.9817 64.2663 49.6554 60.4649L48.7571 58.0416Z"
            fill="#EDCBCE" />
        <path
            d="M50.6009 36.7541L48.2369 36.8729L49.9508 38.4291L47.5868 39.617C43.2962 39.8427 42.0551 36.6947 42.9416 34.5208C43.8281 32.3469 47.4922 31.5035 50.0335 34.3545L50.6009 36.7541Z"
            fill="#EDCBCE" />
        <path
            d="M61.1089 54.4184L59.0759 55.6064L59.7023 53.4325L57.0783 53.7532C53.3196 55.8796 53.9697 59.2176 55.8963 60.5718C57.823 61.9261 61.3453 60.6431 62.0072 56.8418L61.1089 54.4184Z"
            fill="#EDCBCE" />
        <path
            d="M37.2919 60.2036C38.69 57.4499 39.2335 54.338 38.8522 51.2704L42.3036 50.2845L50.4239 47.9086C50.7905 50.6826 50.3254 53.5034 49.0882 56.0102C47.6816 55.4876 44.6794 57.6377 44.6912 57.6377L47.3152 57.3169L46.7006 59.4908L48.7336 58.3029L49.6792 60.6787C49.6792 60.6787 50.3175 57.9109 49.6792 56.5923C51.0898 53.8218 51.6219 50.6835 51.204 47.5998L54.419 46.6376C57.3976 45.7466 60.2107 44.8438 62.7638 44.0479C63.1862 46.8894 62.7281 49.7926 61.4518 52.3633C60.0453 51.8406 57.043 53.9789 57.0548 53.9908L59.6788 53.67L59.0524 55.8439L61.0854 54.656L62.031 57.0318C62.031 57.0318 62.6811 54.2521 62.031 52.9335C63.4716 50.1175 64.0045 46.9207 63.5558 43.7866L64.9505 43.3352C68.0474 42.3848 71.1915 41.8265 72.9999 41.2444C74.8083 40.6624 75.7303 41.6958 75.222 39.9734C74.7138 38.2509 74.4892 39.6645 72.6571 40.1159C70.825 40.5673 67.9291 41.8146 64.7614 42.6699L58.3196 44.4281C57.023 41.577 54.8801 39.1993 52.185 37.6213C52.0077 36.172 49.9747 34.1763 49.9747 34.1763L50.4593 36.7066L48.0953 36.8135L49.7856 38.3103L47.4216 39.4982C47.4216 39.4982 51.0858 39.6883 51.9959 38.4885C54.3988 39.9485 56.3096 42.1006 57.4803 44.6656L54.0762 45.616L45.8732 47.9918C44.5579 45.1922 42.4321 42.857 39.7741 41.292C39.585 39.8427 37.552 37.847 37.552 37.847L38.0366 40.3773L35.6726 40.4842L37.481 41.9928L35.1171 43.1807C35.1171 43.1807 38.7812 43.3708 39.6914 42.171C42.0652 43.6135 43.9611 45.7297 45.1404 48.2531L41.9844 49.156L33.5805 51.6743C32.2623 48.8668 30.1327 46.5237 27.4696 44.9507C27.2805 43.5015 25.2593 41.5177 25.2711 41.5177L25.7439 44.0479L23.3799 44.1667L25.0701 45.5566L22.7062 46.7445C22.7062 46.7445 26.3822 46.9346 27.2805 45.7348C29.6692 47.182 31.5745 49.3119 32.7531 51.8525L29.8217 52.7316C26.7368 53.6582 23.9118 54.5847 21.2405 55.4044C19.9461 52.5192 17.7895 50.111 15.0705 48.5145C14.8814 47.0771 12.8483 45.0814 12.8602 45.0814L13.333 47.6117L10.969 47.7305L12.6474 49.2272L10.2834 50.4151C10.2834 50.4151 13.9594 50.6052 14.8696 49.4054C17.3119 50.8847 19.243 53.0825 20.4013 55.7014L19.2193 56.0696C16.1225 57.0318 13.5575 57.9109 11.7609 58.4455L10.8981 58.7424C10.1652 57.5545 6.89111 57.0318 6.89111 57.02L8.75865 58.7781L6.95021 60.263L9.18417 60.4649L8.00218 62.8407C8.00218 62.8407 11.3827 60.6075 11.0872 59.0988C11.0939 59.0396 11.0939 58.9798 11.0872 58.9206L11.9382 58.7068C13.7703 58.2198 16.3943 57.5189 19.5266 56.723L25.5902 55.0599C25.9828 57.8638 25.5213 60.7214 24.2664 63.2565C22.8598 62.7338 19.8576 64.884 19.8694 64.884L22.5052 64.5632L21.8788 66.7371L23.9118 65.5492L24.8574 67.925C24.8574 67.925 25.4957 65.1453 24.8574 63.8267C26.2831 61.0441 26.8197 57.8871 26.394 54.7867L30.0581 53.7651L37.9775 51.4961C38.3393 54.2623 37.8744 57.0741 36.6418 59.574C35.2353 59.0513 32.233 61.2014 32.2448 61.2014L34.8807 60.8807L34.2542 63.0546L36.2872 61.8667L37.2328 64.2425C37.2328 64.2425 37.9066 61.5222 37.2919 60.2036ZM27.4578 45.2477C27.464 45.1805 27.464 45.1129 27.4578 45.0458C27.4648 45.1169 27.4648 45.1885 27.4578 45.2596V45.2477ZM39.8687 41.6721C39.8805 41.6133 39.8805 41.5527 39.8687 41.4939C39.8713 41.5335 39.8713 41.5731 39.8687 41.6127V41.6721ZM52.1968 38.3578C52.2275 38.2809 52.2512 38.2014 52.2678 38.1202C52.2482 38.1812 52.2245 38.2407 52.1968 38.2984V38.3578ZM49.3246 56.1053C49.3954 56.1463 49.4593 56.1984 49.5137 56.2597C49.4506 56.1726 49.3701 56.0998 49.2773 56.0459L49.3246 56.1053ZM36.9137 59.7403C36.9518 59.7599 36.9875 59.7838 37.0201 59.8116C36.9772 59.759 36.9251 59.7147 36.8664 59.6809L36.9137 59.7403Z"
            fill="#4B4B3B" />
        <path
            d="M8.7702 58.79L6.96175 60.263L9.20754 60.4768L7.95463 62.8526C4.62141 65.5848 1.77281 63.7792 1.20545 61.4984C0.638094 59.2176 3.10846 56.3666 6.89084 57.115L8.7702 58.79Z"
            fill="#EDCBCE" />
        <path
            d="M66.2861 2.32831C66.9599 13.6967 74.5601 22.8674 83.2832 22.0477C91.829 21.2399 97.3725 12.6275 98.0935 1.3067C98.0935 1.1404 98.1644 -0.0593997 97.8689 -3.8743e-06C94.193 0.629592 91.0489 5.45253 88.2239 8.64803C84.6779 12.6869 83.9096 6.01085 81.132 3.06482C81.0492 2.98167 81.0019 3.06482 80.9547 3.14797C79.879 4.89421 78.0706 9.08755 76.8886 10.715C73.3426 7.88776 70.2813 3.52811 66.3925 1.68684C66.298 1.60368 66.2861 2.26892 66.2861 2.32831Z"
            fill="#D67C70" />
        <path
            d="M76.0966 4.77542C76.2095 4.77512 76.3192 4.81354 76.4075 4.88434C76.4958 4.95514 76.5574 5.05408 76.5822 5.16483C76.607 5.27558 76.5935 5.39152 76.5439 5.4935C76.4943 5.59548 76.4115 5.67741 76.3093 5.72576C77.7065 9.44435 78.2519 13.4315 77.905 17.3911C77.905 17.7 77.6095 17.9019 77.5623 17.4742C77.3495 15.5023 77.314 13.5304 77.0658 11.5347C76.8176 9.53897 76.2857 7.67394 76.0375 5.72576C75.9388 5.68772 75.8547 5.619 75.7975 5.52961C75.7404 5.44022 75.7131 5.33482 75.7197 5.22878C75.7263 5.12273 75.7664 5.02157 75.8342 4.94002C75.902 4.85848 75.9939 4.80081 76.0966 4.77542Z"
            fill="#DAD34F" />
        <path
            d="M85.5881 20.254C86.12 18.0326 86.7701 15.8587 87.0892 13.6016C87.4083 11.3446 87.4202 9.39641 87.6211 7.30568C87.5137 7.286 87.4167 7.22862 87.3474 7.14378C87.2781 7.05893 87.2411 6.95213 87.2429 6.8424V6.75924C87.2429 6.62692 87.2952 6.50001 87.3883 6.40645C87.4814 6.31288 87.6076 6.26031 87.7393 6.26031C87.871 6.26031 87.9972 6.31288 88.0903 6.40645C88.1834 6.50001 88.2357 6.62692 88.2357 6.75924V6.8424C88.2371 6.95386 88.1983 7.06207 88.1267 7.14716C88.055 7.23226 87.9553 7.28854 87.8457 7.30568C88.2239 11.5941 87.8457 16.7377 85.8954 20.6103C85.7299 20.9311 85.5526 20.4084 85.5881 20.254Z"
            fill="#DAD34F" />
        <path
            d="M83.9686 5.55946C83.8698 5.53473 83.7826 5.47609 83.7222 5.39368C83.6618 5.31127 83.6319 5.21025 83.6377 5.10805V5.0249C83.6377 4.89257 83.69 4.76567 83.7831 4.6721C83.8762 4.57854 84.0024 4.52597 84.1341 4.52597C84.2658 4.52597 84.392 4.57854 84.4851 4.6721C84.5782 4.76567 84.6305 4.89257 84.6305 5.0249V5.16745C84.6339 5.28327 84.5929 5.39598 84.5159 5.48222C84.4389 5.56846 84.3318 5.62163 84.2168 5.63073C85.4381 10.0787 85.2773 14.7957 83.7559 19.1492C83.6495 19.4581 83.484 19.1492 83.5077 18.9354C84.1377 14.5062 84.2923 10.0218 83.9686 5.55946Z"
            fill="#DAD34F" />
        <path
            d="M79.3826 4.20523V4.28838C79.3835 4.36232 79.3669 4.4354 79.334 4.50153C79.3011 4.56767 79.2529 4.62492 79.1935 4.66852C80.8723 8.97848 81.4493 13.6426 80.8719 18.2345C80.8719 18.4959 80.6591 18.3652 80.6591 18.1632C80.5689 13.6207 79.9339 9.10573 78.768 4.71603C78.6605 4.69635 78.5635 4.63898 78.4943 4.55413C78.425 4.46929 78.3879 4.36248 78.3897 4.25275V4.16959C78.3944 4.03727 78.4512 3.91225 78.5476 3.82202C78.6441 3.7318 78.7722 3.68376 78.9039 3.68849C79.0355 3.69322 79.1599 3.75031 79.2497 3.84722C79.3395 3.94413 79.3873 4.07291 79.3826 4.20523Z"
            fill="#DAD34F" />
        <path
            d="M64.6548 10.0379C65.4112 19.6244 73.4606 32.6083 83.3066 31.8837C92.9635 31.2065 99.7363 18.7334 100.552 9.18258C100.552 9.04003 100.623 7.99467 100.292 8.07782C96.0944 8.82387 92.1908 10.7423 89.0274 13.6135C85.0087 17.0228 84.5477 13.1502 81.439 10.6556C81.3445 10.5843 81.2972 10.6556 81.2499 10.7388C80.0679 12.2118 78.7677 13.6254 77.4439 15.0034C73.4264 12.7485 69.1932 10.9058 64.8084 9.50332C64.6548 9.45581 64.6429 9.99036 64.6548 10.0379Z"
            fill="#E4A593" />
        <path
            d="M84.8317 28.0704C84.812 28.0005 84.812 27.9265 84.8317 27.8566C85.827 26.4927 86.7502 25.0771 87.5975 23.6158C88.3067 22.0952 88.7795 20.4559 89.4178 18.9354C89.5242 18.7097 89.6424 18.9354 89.6188 19.0898C89.3745 21.0392 88.8197 22.9364 87.9758 24.7086C87.724 25.2619 87.4358 25.7977 87.1129 26.3123C87.7342 25.7367 88.2965 25.1 88.7914 24.4117C89.8433 23.0099 90.5762 21.3944 91.6281 19.9926C91.8173 19.7432 91.9 20.1827 91.8527 20.3252C91.2234 22.246 90.2676 24.0426 89.0278 25.6352C88.2713 26.6449 86.3683 29.0208 84.879 28.308C84.8506 28.2763 84.8313 28.2376 84.8229 28.1957C84.8146 28.1539 84.8176 28.1107 84.8317 28.0704Z"
            fill="#D57E6C" />
        <path
            d="M71.2034 15.5498C72.5762 17.1028 73.8701 18.7244 75.0803 20.4084C76.7469 22.4991 78.6263 24.3998 80.3402 26.4311C80.4347 26.5262 80.3402 27.0964 80.2338 26.9894L79.9383 26.7281C79.9383 26.7281 79.9383 26.7875 79.8556 26.7875C78.5436 26.7875 77.1488 25.5996 76.1559 24.8037C74.7949 23.7822 73.5747 22.5839 72.5272 21.2399C72.5272 21.1687 72.5272 20.7529 72.5982 20.8242C73.785 21.5609 74.8974 22.4123 75.9195 23.3663C76.4324 23.7528 76.9694 24.1059 77.5271 24.4235C75.0096 21.8842 72.8609 19.0009 71.1443 15.8587C71.1443 15.8587 71.1325 15.4667 71.2034 15.5498Z"
            fill="#D57E6C" />
        <path
            d="M80.4938 34.9366C77.5743 33.5111 77.7989 28.997 79.4419 28.4625C80.96 28.0943 82.5375 28.0458 84.0753 28.3199C84.5395 28.4563 84.9544 28.7254 85.2692 29.0945C85.584 29.4636 85.7851 29.9168 85.8482 30.3988C85.6946 32.1331 83.5906 34.7822 81.9713 35.0198C81.4783 35.094 80.9755 35.0657 80.4938 34.9366Z"
            fill="#663399" />
        <path
            d="M62.1136 67.4142C61.759 72.0115 65.4941 76.0623 70.4585 76.4424C75.4229 76.8225 79.7253 73.4132 80.0799 68.816C80.4345 64.2187 76.6994 60.168 71.735 59.7878C66.7707 59.4077 62.4682 62.817 62.1136 67.4142Z"
            fill="#C7686A" />
        <path
            d="M54.0997 51.9238C50.1519 54.2996 49.0053 59.6571 51.5348 63.9574C54.0643 68.2577 59.3241 69.897 63.272 67.5211C65.1996 66.264 66.5522 64.2898 67.0331 62.0315C67.5139 59.7733 67.0838 57.4155 65.8369 55.4757C63.3075 51.1635 58.0594 49.5717 54.0997 51.9238Z"
            fill="#C7686A" />
        <path
            d="M62.1372 36.4334C57.9648 34.5208 52.9058 36.671 50.8492 41.1851C48.7925 45.6991 50.5182 50.9735 54.6906 52.886C56.815 53.7542 59.1951 53.7417 61.3103 52.8513C63.4256 51.9609 65.104 50.265 65.9787 48.1344C68.0471 43.5728 66.3214 38.3341 62.1372 36.4334Z"
            fill="#C7686A" />
        <path
            d="M79.3708 34.1645C78.5316 29.6266 73.8863 26.7044 68.9929 27.6191C66.7198 27.954 64.6717 29.1814 63.2978 31.032C61.924 32.8826 61.3366 35.2053 61.6645 37.4906C62.5038 42.0285 67.149 44.9626 72.0424 44.036C76.9359 43.1095 80.2218 38.7023 79.3708 34.1645Z"
            fill="#C7686A" />
        <path
            d="M91.108 47.0533C94.323 43.7509 94.0393 38.2509 90.4815 34.7465C86.9237 31.2422 81.4511 31.0878 78.2361 34.3783C75.0211 37.6688 75.3047 43.1807 78.8625 46.7445C82.4203 50.3082 87.8457 50.3082 91.108 47.0533Z"
            fill="#C7686A" />
        <path
            d="M87.3375 64.1C91.8645 64.8602 96.1906 61.4747 97.0062 56.5329C97.8217 51.5912 94.8077 47.0296 90.2806 46.2456C85.7536 45.4616 81.4157 48.8709 80.6119 53.8126C79.8082 58.7543 82.7986 63.3753 87.3375 64.1Z"
            fill="#C7686A" />
        <path
            d="M71.2978 70.7761C73.2717 74.9338 78.5198 76.5612 82.9995 74.3398C87.4793 72.1184 89.5241 67.0579 87.5384 62.9002C85.5526 58.7425 80.3164 57.115 75.8248 59.277C71.3333 61.439 69.2884 66.6184 71.2978 70.7761Z"
            fill="#C7686A" />
        <path
            d="M58.804 43.252C56.9887 46.1901 56.081 49.6032 56.1957 53.0597C56.3105 56.5163 57.4425 59.861 59.4487 62.6709C61.4549 65.4808 64.2451 67.6297 67.4665 68.8459C70.688 70.0621 74.1959 70.2909 77.5467 69.5034C80.8975 68.7159 83.9407 66.9475 86.2915 64.4218C88.6422 61.896 90.195 58.7265 90.7533 55.3138C91.3117 51.9012 90.8505 48.3988 89.4283 45.2496C88.006 42.1003 85.6865 39.4457 82.763 37.6213C78.8412 35.1813 74.1167 34.4039 69.6254 35.4594C65.1342 36.5149 61.2426 39.3173 58.804 43.252Z"
            fill="#A95050" />
        <path
            d="M58.3785 43.941C56.6627 46.7368 55.8092 49.9806 55.9255 53.2634C56.0419 56.5461 57.1229 59.7207 59.0322 62.3867C60.9415 65.0528 63.5937 67.0909 66.6541 68.2439C69.7146 69.397 73.0462 69.6134 76.2289 68.8658C79.4116 68.1183 82.3027 66.4403 84.5376 64.0434C86.7725 61.6465 88.2511 58.6382 88.7869 55.3978C89.3227 52.1575 88.8918 48.8302 87.5483 45.8357C86.2049 42.8412 84.0092 40.3135 81.2382 38.5716C77.4979 36.239 72.989 35.4942 68.7026 36.5011C64.4161 37.5079 60.7027 40.1839 58.3785 43.941Z"
            fill="#CF7776" />
        <path
            d="M83.3775 57.4357C85.8597 56.034 85.6588 50.9141 82.9165 45.9961C80.1743 41.0781 75.931 38.2153 73.4606 39.617C70.9902 41.0187 71.1912 46.1387 73.9216 51.0566C76.652 55.9746 80.8953 58.8612 83.3775 57.4357Z"
            fill="#D58682" />
        <path
            d="M58.6031 58.8969C60.0209 59.0536 61.3694 59.5957 62.5036 60.4649C63.8157 61.736 63.5438 64.7414 63.5438 64.7414C63.8336 64.3621 64.2084 64.0569 64.6376 63.8505C65.0669 63.6441 65.5385 63.5423 66.0142 63.5535C67.2295 63.878 68.3204 64.5607 69.1464 65.5136C69.1464 65.5136 67.8699 63.1377 68.981 61.9498C69.3799 61.5967 69.8476 61.3308 70.3543 61.1693C70.861 61.0077 71.3956 60.9539 71.9241 61.0114C70.9188 60.1204 70.1749 58.9703 69.7729 57.6852C69.3356 55.8202 70.8367 53.183 70.8367 53.183C69.6279 53.1405 68.471 52.6788 67.5626 51.8763C65.9078 50.5102 65.6241 47.5523 65.6241 47.5523C65.6241 47.5523 64.3003 49.2629 63.1892 49.156C62.0781 49.049 60.187 46.5425 60.187 46.5425C60.187 46.5425 61.4517 49.1797 60.4588 50.1063C59.4664 50.8244 58.3211 51.3003 57.1138 51.4961C57.7373 51.8752 58.2771 52.3785 58.6999 52.9751C59.1227 53.5716 59.4196 54.2487 59.5723 54.9649C59.7424 56.3508 59.3972 57.751 58.6031 58.8969Z"
            fill="#A84E4E" />
        <path
            d="M80.1037 63.6248C79.9619 63.7198 80.021 63.4704 80.1037 63.411C83.5551 59.8472 87.042 56.0221 86.9001 50.819C85.9073 53.6225 83.1887 56.3666 81.0611 58.0891C80.9547 58.1841 80.9665 58.0059 81.0611 57.9465C83.2662 55.4684 85.2184 52.7742 86.8883 49.9044C86.8883 49.8331 87.0183 49.6074 87.0893 49.6905C87.1602 49.7737 87.2666 49.6905 87.2311 49.8212V49.9637C88.9332 54.5253 83.626 61.3559 80.1037 63.6248Z"
            fill="#A94F4F" />
        <path
            d="M82.314 42.468L81.7821 42.2304C81.7821 42.3017 81.6758 42.3967 81.6403 42.3967C79.9452 42.4376 78.2502 42.3063 76.5814 42.0047C74.9148 41.8978 73.26 42.3017 71.6052 42.2067C71.4397 42.2067 71.7116 41.8147 71.7943 41.779C74.9739 40.5911 78.2007 41.1851 81.3448 42.0404C79.5718 41.2563 77.7988 40.3892 75.9786 39.7596C73.4148 38.9817 70.6938 38.8875 68.0829 39.4863C68.0119 39.4863 68.1656 39.2488 68.2129 39.225C72.799 36.8492 78.638 39.4982 82.3968 42.2898C82.4677 42.3255 82.3495 42.4918 82.314 42.468Z"
            fill="#A94F4F" />
        <path
            d="M84.7724 46.2693C83.2352 46.3642 81.7088 46.5907 80.2099 46.9465C78.5157 47.4989 76.8741 48.2026 75.3047 49.0491C75.151 49.1203 75.2338 48.8709 75.3047 48.8234C77.7278 46.9583 81.7584 45.1171 84.8434 46.103C84.9143 46.1268 84.8315 46.2693 84.7724 46.2693Z"
            fill="#A94F4F" />
        <path
            d="M78.9098 41.5295C78.9135 38.3498 80.0963 35.2856 82.2272 32.9353C84.3582 30.585 87.2843 29.1173 90.4342 28.8188C91.4483 26.3425 93.212 24.2496 95.4755 22.8367C97.7389 21.4238 100.387 20.7625 103.046 20.9465C105.704 21.1305 108.237 22.1504 110.286 23.8618C112.336 25.5732 113.797 27.8893 114.464 30.4819C117.116 30.88 119.574 32.1117 121.487 34.0004C123.399 35.8891 124.667 38.3379 125.109 40.9956C125.552 43.6534 125.145 46.3836 123.949 48.7949C122.752 51.2062 120.826 53.1748 118.447 54.4184C119.135 57.2235 118.856 60.1801 117.654 62.8046C116.452 65.4291 114.4 67.566 111.833 68.8657C109.266 70.1654 106.335 70.551 103.522 69.9593C100.708 69.3676 98.1775 67.8337 96.3442 65.6086C95.3788 65.8327 94.3917 65.9482 93.401 65.9531C91.3858 65.9543 89.3994 65.4729 87.6062 64.5487C85.813 63.6246 84.2648 62.2843 83.0898 60.6389C81.9148 58.9935 81.1468 57.0904 80.8495 55.0873C80.5522 53.0842 80.7341 51.0387 81.3801 49.1203C79.7643 46.9237 78.8978 44.2612 78.9098 41.5295Z"
            fill="#F2DDC8" />
        <path
            d="M87.5264 58.3267C85.5525 56.915 84.1738 54.8138 83.6601 52.4344C83.1464 50.055 83.5346 47.5685 84.7487 45.4616C83.657 43.7275 83.1365 41.6919 83.2613 39.6437C83.3861 37.5955 84.1498 35.6389 85.4438 34.0517C86.7379 32.4644 88.4966 31.3272 90.4703 30.8016C92.444 30.2759 94.5322 30.3885 96.4386 31.1234C97.8638 29.6429 99.7179 28.6527 101.736 28.2941C103.755 27.9354 105.834 28.2267 107.678 29.1262C109.522 30.0258 111.036 31.4877 112.004 33.3034C112.972 35.1191 113.345 37.1957 113.069 39.2369C115.111 40.056 116.816 41.5459 117.907 43.4638C118.999 45.3817 119.411 47.6145 119.078 49.7982C118.745 51.982 117.686 53.988 116.073 55.4893C114.46 56.9906 112.389 57.8986 110.197 58.0653C109.921 58.7722 109.56 59.4424 109.121 60.061C108.382 61.1094 107.445 62.0009 106.362 62.6843C105.279 63.3678 104.073 63.8298 102.813 64.0439C101.552 64.258 100.262 64.2199 99.016 63.9319C97.7701 63.6439 96.5929 63.1117 95.5521 62.3656C94.6876 61.7443 93.9291 60.986 93.3063 60.1204C91.2394 60.1518 89.2158 59.5238 87.5264 58.3267Z"
            fill="#F1D4B0" />
        <path
            d="M88.0348 43.3114C88.0494 41.6245 88.6901 40.0039 89.8313 38.7668C90.9726 37.5298 92.5322 36.7654 94.2048 36.6234C94.7583 35.3169 95.7059 34.218 96.914 33.4815C98.122 32.745 99.5296 32.4081 100.938 32.5183C102.347 32.6285 103.686 33.1803 104.766 34.0958C105.846 35.0113 106.613 36.2444 106.958 37.6213C108.353 37.8552 109.638 38.5237 110.633 39.5324C111.629 40.5411 112.283 41.8387 112.504 43.2417C112.725 44.6447 112.501 46.082 111.864 47.3502C111.228 48.6184 110.21 49.6532 108.956 50.3082C109.08 50.8334 109.14 51.3721 109.133 51.9119C109.12 53.3057 108.68 54.6615 107.873 55.7949C107.066 56.9283 105.931 57.7843 104.622 58.2464C103.314 58.7085 101.895 58.7543 100.56 58.3776C99.225 58.0009 98.0377 57.2199 97.1598 56.1409C95.9846 56.4132 94.7583 56.363 93.6091 55.9955C92.4599 55.6279 91.4302 54.9566 90.6278 54.0518C89.8254 53.147 89.2798 52.042 89.0482 50.8526C88.8166 49.6631 88.9075 48.433 89.3113 47.2909C88.4736 46.1356 88.0262 44.7409 88.0348 43.3114Z"
            fill="#ECCAA2" />
        <path
            d="M94.7129 44.535C94.7222 43.7655 95.017 43.0272 95.5395 42.4647C96.062 41.9022 96.7747 41.556 97.5379 41.4939C97.785 40.8941 98.2145 40.3883 98.7649 40.0487C99.3154 39.7091 99.9587 39.5532 100.603 39.6033C101.247 39.6534 101.858 39.9069 102.35 40.3275C102.842 40.7482 103.189 41.3145 103.341 41.9453C103.98 42.0495 104.57 42.3538 105.027 42.8148C105.484 43.2758 105.784 43.87 105.885 44.5127C105.986 45.1553 105.882 45.8135 105.589 46.3935C105.296 46.9734 104.828 47.4455 104.252 47.7423C104.309 47.9835 104.337 48.2309 104.334 48.4789C104.334 49.1159 104.137 49.7372 103.771 50.2569C103.404 50.7766 102.886 51.1691 102.288 51.3803C101.69 51.5915 101.041 51.611 100.432 51.436C99.8225 51.261 99.2821 50.9001 98.8854 50.4033C98.6528 50.4563 98.4146 50.4802 98.1762 50.4746C97.7721 50.473 97.3724 50.3911 97 50.2336C96.6276 50.076 96.29 49.846 96.0065 49.5566C95.723 49.2673 95.4993 48.9244 95.3483 48.5478C95.1973 48.1712 95.122 47.7682 95.1266 47.3622C95.125 47.0254 95.1851 46.6912 95.3039 46.3763C94.9166 45.8416 94.7095 45.1964 94.7129 44.535Z"
            fill="#F1CEB4" />
        <path
            d="M101.781 43.454C102.022 43.5292 102.233 43.6798 102.382 43.884C102.532 44.0881 102.613 44.3349 102.613 44.5884C102.613 44.8419 102.532 45.0888 102.382 45.2929C102.233 45.497 102.022 45.6477 101.781 45.7229C101.54 45.6477 101.33 45.497 101.18 45.2929C101.03 45.0888 100.95 44.8419 100.95 44.5884C100.95 44.3349 101.03 44.0881 101.18 43.884C101.33 43.6798 101.54 43.5292 101.781 43.454Z"
            fill="#66594C" />
        <path
            d="M102.372 46.1505H102.479C102.72 46.2257 102.93 46.3764 103.08 46.5805C103.23 46.7846 103.31 47.0315 103.31 47.285C103.31 47.5385 103.23 47.7854 103.08 47.9895C102.93 48.1936 102.72 48.3443 102.479 48.4195H102.372C102.132 48.3443 101.921 48.1936 101.771 47.9895C101.622 47.7854 101.541 47.5385 101.541 47.285C101.541 47.0315 101.622 46.7846 101.771 46.5805C101.921 46.3764 102.132 46.2257 102.372 46.1505Z"
            fill="#66594C" />
        <path
            d="M101.285 48.1106V48.2175C101.213 48.4643 101.064 48.681 100.86 48.8352C100.655 48.9895 100.406 49.0728 100.15 49.0728C99.8946 49.0728 99.6457 48.9895 99.4411 48.8352C99.2365 48.681 99.0872 48.4643 99.0156 48.2175V48.1106C99.0872 47.8639 99.2365 47.6471 99.4411 47.4929C99.6457 47.3387 99.8946 47.2553 100.15 47.2553C100.406 47.2553 100.655 47.3387 100.86 47.4929C101.064 47.6471 101.213 47.8639 101.285 48.1106Z"
            fill="#66594C" />
        <path
            d="M99.4526 44.6181H99.689C99.9345 44.6901 100.15 44.8402 100.304 45.0458C100.457 45.2514 100.54 45.5015 100.54 45.7585C100.54 46.0156 100.457 46.2657 100.304 46.4713C100.15 46.6769 99.9345 46.827 99.689 46.8989H99.4526C99.2071 46.827 98.9914 46.6769 98.838 46.4713C98.6845 46.2657 98.6016 46.0156 98.6016 45.7585C98.6016 45.5015 98.6845 45.2514 98.838 45.0458C98.9914 44.8402 99.2071 44.6901 99.4526 44.6181Z"
            fill="#66594C" />
        <path
            d="M97.8217 42.3967C98.0673 42.4687 98.2829 42.6188 98.4364 42.8244C98.5898 43.03 98.6728 43.2801 98.6728 43.5371C98.6728 43.7942 98.5898 44.0443 98.4364 44.2499C98.2829 44.4555 98.0673 44.6056 97.8217 44.6775C97.5762 44.6056 97.3605 44.4555 97.2071 44.2499C97.0536 44.0443 96.9707 43.7942 96.9707 43.5371C96.9707 43.2801 97.0536 43.03 97.2071 42.8244C97.3605 42.6188 97.5762 42.4687 97.8217 42.3967Z"
            fill="#66594C" />
        <path
            d="M100.032 41.8146H100.15C100.391 41.8898 100.602 42.0405 100.751 42.2446C100.901 42.4487 100.982 42.6956 100.982 42.9491C100.982 43.2026 100.901 43.4495 100.751 43.6536C100.602 43.8577 100.391 44.0084 100.15 44.0836H100.032C99.7912 44.0084 99.5806 43.8577 99.431 43.6536C99.2814 43.4495 99.2007 43.2026 99.2007 42.9491C99.2007 42.6956 99.2814 42.4487 99.431 42.2446C99.5806 42.0405 99.7912 41.8898 100.032 41.8146Z"
            fill="#66594C" />
        <path
            d="M104.228 43.7985C104.474 43.8704 104.689 44.0205 104.843 44.2261C104.996 44.4317 105.079 44.6818 105.079 44.9389C105.079 45.1959 104.996 45.446 104.843 45.6516C104.689 45.8572 104.474 46.0073 104.228 46.0793C103.982 46.0073 103.767 45.8572 103.613 45.6516C103.46 45.446 103.377 45.1959 103.377 44.9389C103.377 44.6818 103.46 44.4317 103.613 44.2261C103.767 44.0205 103.982 43.8704 104.228 43.7985Z"
            fill="#66594C" />
        <path
            d="M98.602 47.9918V48.1106C98.5303 48.3573 98.381 48.5741 98.1764 48.7283C97.9718 48.8825 97.723 48.9659 97.4672 48.9659C97.2115 48.9659 96.9626 48.8825 96.758 48.7283C96.5534 48.5741 96.4041 48.3573 96.3325 48.1106V47.9918C96.4041 47.7451 96.5534 47.5283 96.758 47.3741C96.9626 47.2199 97.2115 47.1365 97.4672 47.1365C97.723 47.1365 97.9718 47.2199 98.1764 47.3741C98.381 47.5283 98.5303 47.7451 98.602 47.9918Z"
            fill="#66594C" />
        <path
            d="M96.4149 44.3687C96.6558 44.4438 96.8664 44.5945 97.016 44.7986C97.1656 45.0027 97.2463 45.2496 97.2463 45.5031C97.2463 45.7566 97.1656 46.0035 97.016 46.2076C96.8664 46.4117 96.6558 46.5624 96.4149 46.6376C96.174 46.5624 95.9634 46.4117 95.8138 46.2076C95.6642 46.0035 95.5835 45.7566 95.5835 45.5031C95.5835 45.2496 95.6642 45.0027 95.8138 44.7986C95.9634 44.5945 96.174 44.4438 96.4149 44.3687Z"
            fill="#66594C" />
        <path
            d="M104.642 40.7218C104.642 40.8667 104.584 41.0057 104.482 41.1082C104.38 41.2106 104.242 41.2682 104.098 41.2682C103.954 41.2682 103.815 41.2106 103.713 41.1082C103.611 41.0057 103.554 40.8667 103.554 40.7218C103.554 40.5768 103.611 40.4378 103.713 40.3354C103.815 40.2329 103.954 40.1753 104.098 40.1753C104.242 40.1753 104.38 40.2329 104.482 40.3354C104.584 40.4378 104.642 40.5768 104.642 40.7218Z"
            fill="#F1DCC7" />
        <path
            d="M106.214 48.7758H106.273C106.417 48.7758 106.555 48.8334 106.657 48.9359C106.759 49.0383 106.816 49.1773 106.816 49.3223C106.816 49.4672 106.759 49.6062 106.657 49.7087C106.555 49.8111 106.417 49.8687 106.273 49.8687H106.214C106.069 49.8687 105.931 49.8111 105.829 49.7087C105.727 49.6062 105.67 49.4672 105.67 49.3223C105.67 49.1773 105.727 49.0383 105.829 48.9359C105.931 48.8334 106.069 48.7758 106.214 48.7758Z"
            fill="#F1DCC7" />
        <path
            d="M97.8333 52.1376C97.9775 52.1376 98.1158 52.1952 98.2177 52.2977C98.3197 52.4002 98.377 52.5391 98.377 52.6841C98.377 52.829 98.3197 52.968 98.2177 53.0705C98.1158 53.1729 97.9775 53.2305 97.8333 53.2305C97.6891 53.2305 97.5508 53.1729 97.4488 53.0705C97.3468 52.968 97.2896 52.829 97.2896 52.6841C97.2896 52.5391 97.3468 52.4002 97.4488 52.2977C97.5508 52.1952 97.6891 52.1376 97.8333 52.1376Z"
            fill="#F1DCC7" />
        <path
            d="M92.6918 42.3611H92.7509C92.8798 42.3803 92.9976 42.4455 93.0827 42.5447C93.1678 42.6439 93.2147 42.7706 93.2147 42.9016C93.2147 43.0326 93.1678 43.1592 93.0827 43.2584C92.9976 43.3577 92.8798 43.4228 92.7509 43.4421H92.6918C92.5629 43.4228 92.4451 43.3577 92.36 43.2584C92.2749 43.1592 92.228 43.0326 92.228 42.9016C92.228 42.7706 92.2749 42.6439 92.36 42.5447C92.4451 42.4455 92.5629 42.3803 92.6918 42.3611Z"
            fill="#F1DCC7" />
        <path
            d="M96.2258 37.9896C96.37 37.9896 96.5083 38.0471 96.6103 38.1496C96.7123 38.2521 96.7696 38.3911 96.7696 38.536C96.7696 38.6809 96.7123 38.8199 96.6103 38.9224C96.5083 39.0249 96.37 39.0824 96.2258 39.0824C96.0816 39.0824 95.9433 39.0249 95.8414 38.9224C95.7394 38.8199 95.6821 38.6809 95.6821 38.536C95.6821 38.3911 95.7394 38.2521 95.8414 38.1496C95.9433 38.0471 96.0816 37.9896 96.2258 37.9896Z"
            fill="#F1DCC7" />
        <path
            d="M104.157 53.2068C104.286 53.226 104.404 53.2912 104.489 53.3904C104.574 53.4896 104.621 53.6162 104.621 53.7473C104.621 53.8783 104.574 54.0049 104.489 54.1041C104.404 54.2033 104.286 54.2685 104.157 54.2878C104.028 54.2685 103.91 54.2033 103.825 54.1041C103.74 54.0049 103.693 53.8783 103.693 53.7473C103.693 53.6162 103.74 53.4896 103.825 53.3904C103.91 53.2912 104.028 53.226 104.157 53.2068Z"
            fill="#F1DCC7" />
        <path
            d="M111.486 41.8978C111.958 41.7909 112.313 42.563 111.828 42.9313H111.769C111.688 42.983 111.594 43.0105 111.497 43.0105C111.401 43.0105 111.307 42.983 111.225 42.9313H111.155C111.057 42.8609 110.984 42.7612 110.947 42.6466C110.909 42.5319 110.908 42.4082 110.945 42.2933C110.982 42.1784 111.054 42.0782 111.151 42.0071C111.248 41.936 111.365 41.8977 111.486 41.8978Z"
            fill="#F1DCC7" />
        <path
            d="M90.7535 48.3244C90.7535 48.4694 90.6962 48.6083 90.5942 48.7108C90.4922 48.8133 90.3539 48.8709 90.2097 48.8709C90.0655 48.8709 89.9272 48.8133 89.8253 48.7108C89.7233 48.6083 89.666 48.4694 89.666 48.3244C89.666 48.1795 89.7233 48.0405 89.8253 47.938C89.9272 47.8356 90.0655 47.778 90.2097 47.778C90.3539 47.778 90.4922 47.8356 90.5942 47.938C90.6962 48.0405 90.7535 48.1795 90.7535 48.3244Z"
            fill="#F1DCC7" />
        <path
            d="M101.604 33.4398C101.692 33.3622 101.801 33.3139 101.918 33.3015C102.034 33.289 102.152 33.313 102.254 33.3703C102.356 33.4276 102.438 33.5152 102.489 33.6212C102.54 33.7273 102.557 33.8465 102.538 33.9625V34.0219C102.513 34.1132 102.466 34.1965 102.399 34.2633C102.333 34.33 102.25 34.3779 102.159 34.4021C101.556 34.4733 101.261 33.6774 101.604 33.4398Z"
            fill="#F1DCC7" />
        <path
            d="M95.1737 57.9465C95.3027 57.9658 95.4204 58.031 95.5056 58.1302C95.5907 58.2294 95.6375 58.356 95.6375 58.487C95.6375 58.618 95.5907 58.7447 95.5056 58.8439C95.4204 58.9431 95.3027 59.0083 95.1737 59.0275C95.0448 59.0083 94.9271 58.9431 94.8419 58.8439C94.7568 58.7447 94.71 58.618 94.71 58.487C94.71 58.356 94.7568 58.2294 94.8419 58.1302C94.9271 58.031 95.0448 57.9658 95.1737 57.9465Z"
            fill="#F1DCC7" />
        <path
            d="M113.282 49.9637H113.353C113.435 49.9671 113.516 49.9885 113.59 50.0266C113.663 50.0646 113.728 50.1183 113.778 50.1839C113.829 50.2496 113.865 50.3255 113.883 50.4065C113.902 50.4875 113.902 50.5715 113.885 50.6527C113.851 50.7647 113.782 50.8628 113.688 50.9325C113.595 51.0022 113.481 51.0398 113.365 51.0398C113.248 51.0398 113.135 51.0022 113.041 50.9325C112.948 50.8628 112.879 50.7647 112.845 50.6527C112.667 50.3676 112.821 49.9162 113.282 49.9637Z"
            fill="#F1DCC7" />
        <path
            d="M86.2263 34.9366C86.3143 34.859 86.424 34.8107 86.5405 34.7982C86.6569 34.7858 86.7743 34.8098 86.8766 34.8671C86.9788 34.9243 87.061 35.012 87.1118 35.118C87.1625 35.224 87.1794 35.3432 87.1601 35.4593C87.1657 35.4787 87.1657 35.4993 87.1601 35.5187C87.1384 35.6111 87.0915 35.6957 87.0247 35.7628C86.9579 35.83 86.8738 35.8771 86.7818 35.8988C86.179 35.9701 85.8835 35.2217 86.2263 34.9366Z"
            fill="#F1DCC7" />
    </g>
    <defs>
        <clipPath id="clip0_349_670">
            <rect width="403" height="116" fill="white" />
        </clipPath>
    </defs>
</svg>