<svg width="20" height="20" viewBox="0 0 20 20" fill="none" xmlns="http://www.w3.org/2000/svg">
<path d="M10 1.66667L12.0833 4.79167H11.0417V6.87501H8.95833V4.79167H7.91666L10 1.66667Z" fill="white"/>
<path d="M16.2917 8.95834C16.844 8.95834 17.2917 9.40605 17.2917 9.95834V16.2917C17.2917 16.844 16.844 17.2917 16.2917 17.2917H3.70833C3.15605 17.2917 2.70833 16.844 2.70833 16.2917V9.95834C2.70833 9.40605 3.15605 8.95834 3.70833 8.95834H16.2917ZM18.3333 8.91667C18.3333 8.36439 17.8856 7.91667 17.3333 7.91667H2.66666C2.11438 7.91667 1.66666 8.36439 1.66666 8.91667V17.3333C1.66666 17.8856 2.11438 18.3333 2.66666 18.3333H17.3333C17.8856 18.3333 18.3333 17.8856 18.3333 17.3333V8.91667Z" fill="white"/>
<path d="M10 10C10.4104 10 10.8167 10.0808 11.1959 10.2379C11.575 10.3949 11.9195 10.6251 12.2097 10.9153C12.4999 11.2055 12.7301 11.55 12.8871 11.9291C13.0442 12.3083 13.125 12.7146 13.125 13.125C13.125 13.5354 13.0442 13.9417 12.8871 14.3209C12.7301 14.7 12.4999 15.0445 12.2097 15.3347C11.9195 15.6249 11.575 15.8551 11.1959 16.0121C10.8167 16.1692 10.4104 16.25 10 16.25H15.2083V15.2083H16.25V11.0417H15.2083V10H10Z" fill="white"/>
<path d="M6.875 13.125C6.875 12.2962 7.20424 11.5013 7.79029 10.9153C8.37634 10.3292 9.1712 10 10 10H4.79167V11.0417H3.75V15.2083H4.79167V16.25H10C9.1712 16.25 8.37634 15.9208 7.79029 15.3347C7.20424 14.7487 6.875 13.9538 6.875 13.125Z" fill="white"/>
</svg>
